<svg width="24" height="24" viewBox="0 0 24 24" fill="none" xmlns="http://www.w3.org/2000/svg">
<g clip-path="url(#clip0_104_2183)">
<path d="M12 24C12.7956 24 13.5587 23.6839 14.1213 23.1213C14.6839 22.5587 15 21.7956 15 21H9C9 21.7956 9.31607 22.5587 9.87868 23.1213C10.4413 23.6839 11.2044 24 12 24ZM12 2.87697L10.8045 3.11847C9.44818 3.39425 8.22891 4.13046 7.3533 5.20235C6.47769 6.27424 5.99958 7.6159 6 8.99997C6 9.94197 5.799 12.2955 5.3115 14.613C5.0715 15.7635 4.7475 16.962 4.317 18H19.683C19.2525 16.962 18.93 15.765 18.6885 14.613C18.201 12.2955 18 9.94197 18 8.99997C18.0001 7.61616 17.5218 6.27486 16.6462 5.20327C15.7706 4.13168 14.5516 3.39569 13.1955 3.11997L12 2.87697ZM21.33 18C21.6645 18.6705 22.0515 19.2015 22.5 19.5H1.5C1.9485 19.2015 2.3355 18.6705 2.67 18C4.02 15.3 4.5 10.32 4.5 8.99997C4.5 5.36997 7.08 2.33997 10.5075 1.64847C10.4866 1.4399 10.5096 1.22926 10.5751 1.03013C10.6405 0.831 10.747 0.647804 10.8876 0.492357C11.0283 0.336909 11.1999 0.212661 11.3915 0.127626C11.5831 0.0425914 11.7904 -0.00134277 12 -0.00134277C12.2096 -0.00134277 12.4169 0.0425914 12.6085 0.127626C12.8001 0.212661 12.9717 0.336909 13.1124 0.492357C13.253 0.647804 13.3595 0.831 13.4249 1.03013C13.4904 1.22926 13.5134 1.4399 13.4925 1.64847C15.1882 1.9928 16.7127 2.91284 17.8075 4.25267C18.9024 5.59249 19.5003 7.26968 19.5 8.99997C19.5 10.32 19.98 15.3 21.33 18Z" fill="black"/>
</g>
<defs>
<clipPath id="clip0_104_2183">
<rect width="24" height="24" fill="white"/>
</clipPath>
</defs>
</svg>
