<svg width="130" height="19" viewBox="0 0 130 19" fill="none" xmlns="http://www.w3.org/2000/svg">
<g clip-path="url(#clip0)">
<path d="M16.5304 14.9583C16.5138 14.8888 16.483 14.8234 16.4401 14.7664C16.3971 14.7093 16.3428 14.6618 16.2807 14.6267L14.4078 13.607C14.2971 13.5465 14.1679 13.5297 14.0455 13.5598C13.9231 13.5899 13.8163 13.6647 13.7461 13.7696C13.2731 14.4633 12.6417 15.0338 11.9045 15.4338C11.1395 15.8536 10.2795 16.0691 9.40735 16.0594C8.57222 16.0657 7.74431 15.904 6.97266 15.5839C6.22667 15.2787 5.55259 14.8205 4.99369 14.2388C4.44948 13.6324 4.02572 12.9274 3.74513 12.1618C3.42617 11.3122 3.26741 10.4106 3.27692 9.5029C3.26375 8.58881 3.42259 7.68041 3.74513 6.82526C4.02577 6.06528 4.44965 5.36649 4.99369 4.76698C5.54531 4.18816 6.21063 3.73018 6.94769 3.4219C7.72471 3.09719 8.55925 2.93333 9.4011 2.94018C10.2737 2.92648 11.1347 3.14219 11.8982 3.56579C12.6414 3.96673 13.2823 4.53406 13.7711 5.22368C13.8411 5.32705 13.9472 5.40041 14.0685 5.42936C14.1898 5.4583 14.3175 5.44072 14.4266 5.38008L16.2307 4.38535C16.2927 4.35158 16.3469 4.30519 16.3899 4.24916C16.4329 4.19314 16.4638 4.12871 16.4804 4.06003C16.4955 3.9903 16.4961 3.9182 16.4821 3.84824C16.4682 3.77827 16.44 3.71194 16.3993 3.65338C16.0307 3.1381 15.6125 2.66034 15.1507 2.22697C14.6729 1.77507 14.1426 1.38229 13.5713 1.05707C12.9759 0.71963 12.3404 0.458975 11.6797 0.281303C10.9441 0.0884951 10.1864 -0.00616513 9.42608 -0.000225174C8.16571 -0.00892154 6.91538 0.224691 5.74283 0.687954C4.61823 1.13068 3.59542 1.79834 2.73677 2.65023C1.87813 3.50211 1.20164 4.52035 0.748587 5.64284C0.244242 6.86651 -0.0104779 8.179 -0.000548943 9.5029C-0.015913 10.8255 0.232411 12.1378 0.729858 13.363C1.19097 14.4896 1.87474 15.511 2.74004 16.3659C3.59914 17.2116 4.62073 17.8736 5.74283 18.3116C6.91538 18.7749 8.16571 19.0085 9.42608 18.9998C10.8906 19.0454 12.3389 18.6815 13.6088 17.9487C14.7154 17.2794 15.6787 16.397 16.443 15.3524C16.4844 15.2966 16.5136 15.2326 16.5287 15.1647C16.5437 15.0968 16.5443 15.0265 16.5304 14.9583Z" fill="white"/>
<path d="M27.2187 16.0659C26.3825 16.0768 25.5533 15.9127 24.784 15.5842C24.0665 15.2744 23.4268 14.8085 22.9111 14.2204C22.3864 13.6141 21.9855 12.9106 21.7312 12.1496C21.4501 11.2982 21.3109 10.4062 21.3192 9.50946C21.3171 8.59636 21.4669 7.68929 21.7625 6.82556C22.0127 6.06412 22.4117 5.36019 22.9361 4.75477C23.4576 4.17623 24.096 3.71558 24.8089 3.40343C25.5768 3.06971 26.4067 2.90338 27.2436 2.91545C28.0766 2.90207 28.9027 3.0685 29.6658 3.40343C30.3651 3.72045 30.9903 4.18079 31.5012 4.75477C32.0206 5.36164 32.4152 6.06538 32.6624 6.82556C32.9559 7.68714 33.0995 8.59287 33.0869 9.5032C33.0947 10.3989 32.9511 11.2894 32.6624 12.1371C32.3988 12.8984 31.9943 13.6031 31.47 14.2141C30.9655 14.7971 30.3417 15.2644 29.6409 15.5842C28.8779 15.9197 28.0517 16.0862 27.2187 16.0722V16.0659ZM33.8173 2.72777C33.0089 1.86094 32.0258 1.17638 30.9331 0.719535C28.5515 -0.239845 25.8921 -0.239845 23.5104 0.719535C22.4101 1.17564 21.4187 1.86006 20.6013 2.72777C19.7867 3.60327 19.1506 4.62971 18.7285 5.7495C18.2833 6.95018 18.0611 8.22237 18.073 9.5032C18.0617 10.784 18.2838 12.0561 18.7285 13.2569C19.1506 14.3748 19.7868 15.3992 20.6013 16.2724C21.4146 17.1379 22.399 17.824 23.4917 18.2869C25.8733 19.2463 28.5328 19.2463 30.9144 18.2869C32.0052 17.8239 32.9876 17.1378 33.7986 16.2724C34.6151 15.4008 35.2516 14.376 35.6714 13.2569C36.1182 12.0565 36.3424 10.7844 36.3331 9.5032C36.3435 8.22194 36.1193 6.94963 35.6714 5.7495C35.2516 4.62855 34.6152 3.60168 33.7986 2.72777" fill="white"/>
<path d="M53.6505 0.287598H51.4905C51.3564 0.287598 51.2278 0.340987 51.133 0.436021C51.0381 0.531055 50.9849 0.659949 50.9849 0.794348V7.76998H41.8267V0.794348C41.8267 0.7278 41.8136 0.661905 41.7882 0.600423C41.7628 0.538941 41.7255 0.483077 41.6786 0.436021C41.6316 0.388965 41.5759 0.351638 41.5145 0.326172C41.4532 0.300705 41.3874 0.287598 41.321 0.287598H39.1797C39.1133 0.287598 39.0476 0.300705 38.9862 0.326172C38.9249 0.351638 38.8691 0.388965 38.8222 0.436021C38.7752 0.483077 38.738 0.538941 38.7126 0.600423C38.6872 0.661905 38.6741 0.7278 38.6741 0.794348V18.1865C38.6741 18.2528 38.6872 18.3184 38.7127 18.3795C38.7382 18.4406 38.7755 18.4961 38.8226 18.5426C38.8696 18.5892 38.9254 18.6259 38.9867 18.6507C39.048 18.6755 39.1136 18.6878 39.1797 18.687H41.3397C41.4728 18.687 41.6005 18.6345 41.6951 18.5408C41.7898 18.4471 41.8438 18.3198 41.8454 18.1865V10.7104H50.9849V18.2178C50.9849 18.284 50.998 18.3496 51.0235 18.4108C51.049 18.4719 51.0863 18.5274 51.1333 18.5739C51.1804 18.6205 51.2362 18.6572 51.2975 18.682C51.3588 18.7068 51.4244 18.7191 51.4905 18.7183H53.6505C53.783 18.7183 53.91 18.6656 54.0037 18.5717C54.0973 18.4778 54.15 18.3505 54.15 18.2178V0.794348C54.1508 0.728097 54.1385 0.662342 54.1138 0.600895C54.089 0.539448 54.0524 0.483534 54.0059 0.436394C53.9594 0.389254 53.9041 0.351827 53.8431 0.326285C53.7821 0.300742 53.7167 0.287592 53.6505 0.287598Z" fill="white"/>
<path d="M69.7633 3.228C69.8975 3.228 70.0261 3.17461 70.1209 3.07958C70.2157 2.98454 70.269 2.85565 70.269 2.72125V0.794348C70.269 0.659949 70.2157 0.531055 70.1209 0.436021C70.0261 0.340987 69.8975 0.287598 69.7633 0.287598H57.5899C57.4558 0.287598 57.3272 0.340987 57.2323 0.436021C57.1375 0.531055 57.0842 0.659949 57.0842 0.794348V18.1865C57.0842 18.3209 57.1375 18.4498 57.2323 18.5448C57.3272 18.6399 57.4558 18.6933 57.5899 18.6933H69.7633C69.8975 18.6933 70.0261 18.6399 70.1209 18.5448C70.2157 18.4498 70.269 18.3209 70.269 18.1865V16.2534C70.269 16.1871 70.2559 16.1215 70.2304 16.0604C70.2049 15.9992 70.1676 15.9438 70.1205 15.8972C70.0735 15.8507 70.0177 15.8139 69.9564 15.7891C69.8951 15.7644 69.8295 15.752 69.7633 15.7529H60.2493V10.7479H69.1828C69.3152 10.7479 69.4423 10.6952 69.5359 10.6013C69.6296 10.5075 69.6822 10.3802 69.6822 10.2474V8.32678C69.6822 8.19404 69.6296 8.06674 69.5359 7.97288C69.4423 7.87902 69.3152 7.82629 69.1828 7.82629H60.2493V3.228H69.7633Z" fill="white"/>
<path d="M93.6482 0.287598H91.4944C91.2152 0.287598 90.9888 0.514477 90.9888 0.794348V18.1865C90.9888 18.4664 91.2152 18.6933 91.4944 18.6933H93.6482C93.9275 18.6933 94.1539 18.4664 94.1539 18.1865V0.794348C94.1539 0.514477 93.9275 0.287598 93.6482 0.287598Z" fill="white"/>
<path d="M111.066 0.287598H97.1255C96.9914 0.287598 96.8628 0.340987 96.768 0.436021C96.6731 0.531055 96.6199 0.659949 96.6199 0.794348V2.72125C96.6199 2.85565 96.6731 2.98454 96.768 3.07958C96.8628 3.17461 96.9914 3.228 97.1255 3.228H102.513V18.1865C102.513 18.3198 102.565 18.4478 102.659 18.5426C102.752 18.6375 102.879 18.6916 103.012 18.6933H105.179C105.312 18.6916 105.439 18.6375 105.532 18.5426C105.626 18.4478 105.678 18.3198 105.678 18.1865V3.228H111.066C111.2 3.228 111.328 3.17461 111.423 3.07958C111.518 2.98454 111.571 2.85565 111.571 2.72125V0.794348C111.571 0.7278 111.558 0.661905 111.533 0.600423C111.507 0.538941 111.47 0.483077 111.423 0.436021C111.376 0.388965 111.321 0.351638 111.259 0.326172C111.198 0.300705 111.132 0.287598 111.066 0.287598Z" fill="white"/>
<path d="M129.938 0.569146C129.896 0.487509 129.832 0.419109 129.754 0.371599C129.676 0.32409 129.586 0.299344 129.494 0.300131H126.997C126.914 0.299367 126.832 0.319607 126.759 0.358977C126.686 0.398347 126.624 0.455573 126.579 0.525353L121.585 7.97646L116.615 0.512841C116.57 0.443061 116.508 0.385835 116.435 0.346465C116.362 0.307095 116.28 0.286854 116.197 0.287619H113.7C113.609 0.286832 113.519 0.311577 113.44 0.359087C113.362 0.406597 113.298 0.474997 113.257 0.556634C113.209 0.634908 113.184 0.724709 113.184 0.816265C113.184 0.907821 113.209 0.997623 113.257 1.0759L119.987 10.9857V18.1865C119.984 18.2541 119.995 18.3215 120.019 18.3848C120.043 18.448 120.079 18.5058 120.126 18.5548C120.172 18.6038 120.228 18.6429 120.29 18.6699C120.352 18.6969 120.418 18.7113 120.486 18.7121H122.671C122.804 18.7104 122.931 18.6563 123.024 18.5614C123.118 18.4666 123.17 18.3386 123.17 18.2053V10.9857L129.913 1.0759C129.96 1.00085 129.988 0.914673 129.992 0.825832C129.996 0.73699 129.978 0.648535 129.938 0.569146Z" fill="white"/>
<path d="M86.4753 0.287769H79.2398C78.3134 0.27056 77.3936 0.447049 76.5391 0.805977C75.6845 1.1649 74.914 1.69839 74.2767 2.3724C73.6394 3.04641 73.1492 3.84614 72.8375 4.72058C72.5258 5.59502 72.3994 6.52496 72.4664 7.45109C72.6026 9.10353 73.3532 10.6444 74.5696 11.7684C75.786 12.8923 77.3793 13.5174 79.0338 13.5196H81.531C81.855 13.5259 82.1713 13.4197 82.4262 13.2191C82.681 13.0184 82.8588 12.7355 82.9293 12.4185C82.9701 12.2191 82.9661 12.0131 82.9175 11.8155C82.869 11.6179 82.7771 11.4336 82.6485 11.2761C82.52 11.1185 82.358 10.9916 82.1744 10.9046C81.9909 10.8176 81.7902 10.7727 81.5871 10.7731H79.1774C78.1818 10.7866 77.2177 10.4229 76.4781 9.75482C75.7385 9.0867 75.2778 8.16339 75.1883 7.16956C75.155 6.64356 75.2296 6.1163 75.4075 5.62029C75.5853 5.12428 75.8626 4.67002 76.2223 4.28551C76.582 3.901 77.0165 3.59439 77.499 3.38457C77.9814 3.17475 78.5017 3.06616 79.0276 3.06551H85.8947C86.0103 3.06472 86.1226 3.02655 86.2148 2.95666C86.3071 2.88677 86.3743 2.7889 86.4066 2.67763L86.9185 0.932155C86.9491 0.860311 86.9611 0.781874 86.9533 0.704146C86.9455 0.626418 86.9182 0.551927 86.874 0.48761C86.8297 0.423292 86.77 0.371238 86.7003 0.336297C86.6305 0.301355 86.5531 0.284661 86.4753 0.287769Z" fill="#67BF1B"/>
<path d="M81.6619 5.49289H79.1648C78.8452 5.48734 78.5333 5.59174 78.2811 5.78868C78.0289 5.98562 77.8517 6.26321 77.7789 6.5752C77.7373 6.77565 77.7407 6.98285 77.7887 7.18184C77.8367 7.38084 77.9283 7.56666 78.0567 7.72588C78.1851 7.88511 78.3472 8.01377 78.5313 8.10256C78.7154 8.19136 78.9168 8.23808 79.1211 8.23935H81.5496C82.5427 8.22289 83.5052 8.58423 84.2431 9.25058C84.981 9.91693 85.4395 10.8388 85.5262 11.8304C85.5621 12.3571 85.4897 12.8856 85.3134 13.383C85.1371 13.8805 84.8606 14.3364 84.5012 14.7224C84.1418 15.1083 83.7071 15.4162 83.2241 15.6269C82.741 15.8375 82.2199 15.9465 81.6932 15.947H74.72C74.6246 15.9481 74.532 15.9796 74.4557 16.037C74.3794 16.0944 74.3233 16.1746 74.2954 16.266L73.7523 18.1429C73.7332 18.2102 73.7297 18.2811 73.7423 18.35C73.7548 18.4189 73.783 18.4839 73.8246 18.5402C73.8662 18.5964 73.9202 18.6423 73.9824 18.6743C74.0445 18.7063 74.1132 18.7235 74.1831 18.7247H81.4871C83.2726 18.7313 84.9876 18.0274 86.2553 16.7675C87.5231 15.5076 88.2398 13.7948 88.2481 12.0056C88.2219 10.2713 87.5168 8.61681 86.2849 7.39859C85.0529 6.18037 83.3927 5.49597 81.6619 5.49289Z" fill="#67BF1B"/>
</g>
<defs>
<clipPath id="clip0">
<rect width="130" height="19" fill="white"/>
</clipPath>
</defs>
</svg>
