<svg width="24" height="24" viewBox="0 0 24 24" fill="none" xmlns="http://www.w3.org/2000/svg">
<path d="M20 10C20 9.73481 19.8947 9.48046 19.7071 9.29292C19.5196 9.10539 19.2652 9.00003 19 9.00003C18.7348 9.00003 18.4804 9.10539 18.2929 9.29292C18.1054 9.48046 18 9.73481 18 10H20ZM6.00002 10C6.00002 9.73481 5.89466 9.48046 5.70713 9.29292C5.51959 9.10539 5.26524 9.00003 5.00002 9.00003C4.7348 9.00003 4.48045 9.10539 4.29291 9.29292C4.10538 9.48046 4.00002 9.73481 4.00002 10H6.00002ZM20.293 12.707C20.4816 12.8892 20.7342 12.99 20.9964 12.9877C21.2586 12.9854 21.5094 12.8803 21.6948 12.6948C21.8802 12.5094 21.9854 12.2586 21.9877 11.9964C21.99 11.7342 21.8892 11.4816 21.707 11.293L20.293 12.707ZM12 3.00003L12.707 2.29303C12.5195 2.10556 12.2652 2.00024 12 2.00024C11.7349 2.00024 11.4805 2.10556 11.293 2.29303L12 3.00003ZM2.29302 11.293C2.19751 11.3853 2.12133 11.4956 2.06892 11.6176C2.01651 11.7396 1.98892 11.8709 1.98777 12.0036C1.98662 12.1364 2.01192 12.2681 2.0622 12.391C2.11248 12.5139 2.18673 12.6255 2.28063 12.7194C2.37452 12.8133 2.48617 12.8876 2.60907 12.9379C2.73196 12.9881 2.86364 13.0134 2.99642 13.0123C3.1292 13.0111 3.26042 12.9835 3.38242 12.9311C3.50443 12.8787 3.61477 12.8025 3.70702 12.707L2.29302 11.293ZM7.00002 22H17V20H7.00002V22ZM20 19V10H18V19H20ZM6.00002 19V10H4.00002V19H6.00002ZM21.707 11.293L12.707 2.29303L11.293 3.70703L20.293 12.707L21.707 11.293ZM11.293 2.29303L2.29302 11.293L3.70702 12.707L12.707 3.70703L11.293 2.29303ZM17 22C17.7957 22 18.5587 21.684 19.1213 21.1214C19.684 20.5587 20 19.7957 20 19H18C18 19.2652 17.8947 19.5196 17.7071 19.7071C17.5196 19.8947 17.2652 20 17 20V22ZM7.00002 20C6.7348 20 6.48045 19.8947 6.29291 19.7071C6.10538 19.5196 6.00002 19.2652 6.00002 19H4.00002C4.00002 19.7957 4.31609 20.5587 4.8787 21.1214C5.44131 21.684 6.20437 22 7.00002 22V20Z" fill="black"/>
</svg>
