<svg width="217" height="162" viewBox="0 0 217 162" fill="none" xmlns="http://www.w3.org/2000/svg">
<path d="M0.414062 157.449L2.82812 146.027H5.61719L8.27344 154.441H8.33594C8.3724 154.217 8.41927 153.928 8.47656 153.574C8.53385 153.215 8.59635 152.845 8.66406 152.465C8.73698 152.079 8.80469 151.736 8.86719 151.433L10.0156 146.027H12.1562L9.74219 157.449H7.07031L4.28906 148.808H4.21094C4.20573 148.871 4.1849 149.022 4.14844 149.262C4.11719 149.501 4.07552 149.79 4.02344 150.129C3.97656 150.462 3.92448 150.803 3.86719 151.152C3.8099 151.496 3.7526 151.803 3.69531 152.074L2.5625 157.449H0.414062ZM16.125 157.605C15.4688 157.605 14.888 157.47 14.3828 157.199C13.8828 156.928 13.4896 156.543 13.2031 156.043C12.9219 155.538 12.7812 154.939 12.7812 154.246C12.7812 153.626 12.8411 153.035 12.9609 152.473C13.0859 151.905 13.2708 151.384 13.5156 150.91C13.7656 150.431 14.0755 150.017 14.4453 149.668C14.8203 149.314 15.2552 149.04 15.75 148.848C16.2448 148.65 16.8021 148.551 17.4219 148.551C18.099 148.551 18.6849 148.689 19.1797 148.965C19.6745 149.236 20.0573 149.629 20.3281 150.144C20.599 150.66 20.7344 151.282 20.7344 152.012C20.7344 152.605 20.6745 153.178 20.5547 153.73C20.4401 154.277 20.263 154.788 20.0234 155.262C19.7839 155.73 19.4818 156.142 19.1172 156.496C18.7526 156.845 18.3203 157.118 17.8203 157.316C17.3255 157.509 16.7604 157.605 16.125 157.605ZM16.3203 155.691C16.5807 155.691 16.8177 155.626 17.0312 155.496C17.2448 155.361 17.4349 155.176 17.6016 154.941C17.7682 154.702 17.9062 154.428 18.0156 154.121C18.1302 153.808 18.2161 153.473 18.2734 153.113C18.3359 152.754 18.3672 152.387 18.3672 152.012C18.3672 151.715 18.3307 151.452 18.2578 151.223C18.1901 150.988 18.0729 150.806 17.9062 150.676C17.7448 150.54 17.526 150.473 17.25 150.473C16.9635 150.473 16.7057 150.553 16.4766 150.715C16.2526 150.871 16.0573 151.082 15.8906 151.348C15.724 151.613 15.5859 151.91 15.4766 152.238C15.3672 152.566 15.2839 152.905 15.2266 153.254C15.1745 153.598 15.1484 153.928 15.1484 154.246C15.1484 154.72 15.2448 155.079 15.4375 155.324C15.6302 155.569 15.9245 155.691 16.3203 155.691ZM29.6406 157.605C28.9844 157.605 28.4036 157.47 27.8984 157.199C27.3984 156.928 27.0052 156.543 26.7188 156.043C26.4375 155.538 26.2969 154.939 26.2969 154.246C26.2969 153.626 26.3568 153.035 26.4766 152.473C26.6016 151.905 26.7865 151.384 27.0312 150.91C27.2812 150.431 27.5911 150.017 27.9609 149.668C28.3359 149.314 28.7708 149.04 29.2656 148.848C29.7604 148.65 30.3177 148.551 30.9375 148.551C31.6146 148.551 32.2005 148.689 32.6953 148.965C33.1901 149.236 33.5729 149.629 33.8438 150.144C34.1146 150.66 34.25 151.282 34.25 152.012C34.25 152.605 34.1901 153.178 34.0703 153.73C33.9557 154.277 33.7786 154.788 33.5391 155.262C33.2995 155.73 32.9974 156.142 32.6328 156.496C32.2682 156.845 31.8359 157.118 31.3359 157.316C30.8411 157.509 30.276 157.605 29.6406 157.605ZM29.8359 155.691C30.0964 155.691 30.3333 155.626 30.5469 155.496C30.7604 155.361 30.9505 155.176 31.1172 154.941C31.2839 154.702 31.4219 154.428 31.5312 154.121C31.6458 153.808 31.7318 153.473 31.7891 153.113C31.8516 152.754 31.8828 152.387 31.8828 152.012C31.8828 151.715 31.8464 151.452 31.7734 151.223C31.7057 150.988 31.5885 150.806 31.4219 150.676C31.2604 150.54 31.0417 150.473 30.7656 150.473C30.4792 150.473 30.2214 150.553 29.9922 150.715C29.7682 150.871 29.5729 151.082 29.4062 151.348C29.2396 151.613 29.1016 151.91 28.9922 152.238C28.8828 152.566 28.7995 152.905 28.7422 153.254C28.6901 153.598 28.6641 153.928 28.6641 154.246C28.6641 154.72 28.7604 155.079 28.9531 155.324C29.1458 155.569 29.4401 155.691 29.8359 155.691ZM34.4219 161.293L37.0938 148.715H38.8906L38.7578 150.043H38.8281C39.0104 149.793 39.2214 149.553 39.4609 149.324C39.7005 149.095 39.974 148.91 40.2812 148.769C40.5885 148.624 40.9297 148.551 41.3047 148.551C41.7266 148.551 42.125 148.655 42.5 148.863C42.875 149.071 43.1797 149.41 43.4141 149.879C43.6484 150.342 43.7656 150.962 43.7656 151.738C43.7656 152.306 43.7031 152.871 43.5781 153.433C43.4583 153.991 43.2812 154.522 43.0469 155.027C42.8177 155.527 42.5365 155.973 42.2031 156.363C41.875 156.749 41.5026 157.053 41.0859 157.277C40.6693 157.496 40.2135 157.605 39.7188 157.605C39.3646 157.605 39.0651 157.551 38.8203 157.441C38.5755 157.327 38.3672 157.173 38.1953 156.98C38.0286 156.788 37.875 156.571 37.7344 156.332H37.6719C37.6406 156.754 37.599 157.142 37.5469 157.496C37.4948 157.855 37.4245 158.236 37.3359 158.637L36.7734 161.293H34.4219ZM39.3203 155.707C39.5495 155.707 39.7682 155.634 39.9766 155.488C40.1849 155.337 40.375 155.134 40.5469 154.879C40.7188 154.618 40.8672 154.324 40.9922 153.996C41.1172 153.663 41.2135 153.311 41.2812 152.941C41.349 152.571 41.3828 152.202 41.3828 151.832C41.3828 151.374 41.2969 151.03 41.125 150.801C40.9583 150.571 40.7031 150.457 40.3594 150.457C40.1094 150.457 39.8802 150.522 39.6719 150.652C39.4688 150.782 39.2891 150.957 39.1328 151.176C38.9766 151.394 38.8411 151.642 38.7266 151.918C38.612 152.189 38.5182 152.47 38.4453 152.762C38.3724 153.053 38.3177 153.334 38.2812 153.605C38.25 153.876 38.2344 154.118 38.2344 154.332C38.2344 154.743 38.3307 155.077 38.5234 155.332C38.7214 155.582 38.987 155.707 39.3203 155.707ZM47.6875 157.605C46.9948 157.605 46.4427 157.459 46.0312 157.168C45.6198 156.876 45.4141 156.35 45.4141 155.59C45.4141 155.465 45.4219 155.329 45.4375 155.183C45.4531 155.032 45.4766 154.876 45.5078 154.715L46.4062 150.504H45.2188L45.4453 149.355L46.9766 148.699L48.0078 146.855H49.5234L49.1406 148.715H51.3516L50.9609 150.504H48.7578L47.8594 154.715C47.8438 154.793 47.8307 154.871 47.8203 154.949C47.8151 155.022 47.8125 155.082 47.8125 155.129C47.8125 155.337 47.875 155.486 48 155.574C48.125 155.663 48.2917 155.707 48.5 155.707C48.7135 155.707 48.9167 155.683 49.1094 155.637C49.3073 155.584 49.526 155.517 49.7656 155.433V157.191C49.5156 157.311 49.2135 157.41 48.8594 157.488C48.5104 157.566 48.1198 157.605 47.6875 157.605ZM51.3359 157.449L53.1875 148.715H55.5391L53.6875 157.449H51.3359ZM54.7422 147.629C54.4089 147.629 54.1276 147.556 53.8984 147.41C53.6745 147.264 53.5625 147.017 53.5625 146.668C53.5625 146.366 53.6172 146.113 53.7266 145.91C53.8411 145.707 54.0052 145.553 54.2188 145.449C54.4323 145.345 54.6875 145.293 54.9844 145.293C55.2969 145.293 55.5677 145.361 55.7969 145.496C56.0312 145.631 56.1484 145.876 56.1484 146.23C56.1484 146.647 56.0339 146.986 55.8047 147.246C55.5755 147.501 55.2214 147.629 54.7422 147.629ZM56.0859 157.449L57.9375 148.715H59.7344L59.5703 150.332H59.6406C59.8646 149.983 60.112 149.676 60.3828 149.41C60.6536 149.144 60.9531 148.936 61.2812 148.785C61.6146 148.629 61.9844 148.551 62.3906 148.551C62.9896 148.551 63.4531 148.709 63.7812 149.027C64.1146 149.34 64.3333 149.775 64.4375 150.332H64.5C64.7188 149.983 64.9661 149.676 65.2422 149.41C65.5182 149.144 65.8255 148.936 66.1641 148.785C66.5078 148.629 66.8802 148.551 67.2812 148.551C68.0104 148.551 68.5547 148.777 68.9141 149.23C69.2786 149.683 69.4609 150.295 69.4609 151.066C69.4609 151.259 69.4453 151.475 69.4141 151.715C69.3828 151.954 69.3385 152.207 69.2812 152.473L68.2422 157.449H65.8906L66.9688 152.348C67.0104 152.17 67.0417 152.004 67.0625 151.848C67.0833 151.691 67.0938 151.548 67.0938 151.418C67.0938 151.09 67.0286 150.848 66.8984 150.691C66.7734 150.535 66.5833 150.457 66.3281 150.457C66.0573 150.457 65.8073 150.543 65.5781 150.715C65.349 150.887 65.1406 151.126 64.9531 151.433C64.7656 151.741 64.599 152.098 64.4531 152.504C64.3125 152.91 64.1953 153.348 64.1016 153.816L63.3516 157.449H61L62.0703 152.348C62.112 152.17 62.1432 152.004 62.1641 151.848C62.1849 151.691 62.1953 151.548 62.1953 151.418C62.1953 151.09 62.1302 150.848 62 150.691C61.875 150.535 61.6849 150.457 61.4297 150.457C61.1641 150.457 60.9167 150.545 60.6875 150.723C60.4583 150.9 60.25 151.144 60.0625 151.457C59.875 151.764 59.7083 152.121 59.5625 152.527C59.4219 152.933 59.3021 153.368 59.2031 153.832L58.4375 157.449H56.0859ZM73.4531 157.605C73.0312 157.605 72.6328 157.501 72.2578 157.293C71.8828 157.084 71.5755 156.749 71.3359 156.285C71.1016 155.821 70.9844 155.207 70.9844 154.441C70.9844 153.868 71.0443 153.301 71.1641 152.738C71.2891 152.176 71.4661 151.644 71.6953 151.144C71.9297 150.639 72.2109 150.194 72.5391 149.808C72.8724 149.418 73.2474 149.111 73.6641 148.887C74.0859 148.663 74.5417 148.551 75.0312 148.551C75.401 148.551 75.724 148.605 76 148.715C76.276 148.819 76.513 148.967 76.7109 149.16C76.9089 149.353 77.0703 149.577 77.1953 149.832H77.2578L77.7031 148.715H79.5156L77.6562 157.449H75.8984L76.0078 156.316H75.9453C75.737 156.571 75.5104 156.795 75.2656 156.988C75.0208 157.181 74.75 157.332 74.4531 157.441C74.1562 157.551 73.8229 157.605 73.4531 157.605ZM74.375 155.707C74.6979 155.707 74.9974 155.582 75.2734 155.332C75.5495 155.077 75.7865 154.746 75.9844 154.34C76.1823 153.933 76.3229 153.504 76.4062 153.051C76.4479 152.842 76.4766 152.634 76.4922 152.426C76.513 152.212 76.5234 151.983 76.5234 151.738C76.5234 151.368 76.4245 151.064 76.2266 150.824C76.0339 150.579 75.7682 150.457 75.4297 150.457C75.2005 150.457 74.9818 150.532 74.7734 150.683C74.5703 150.829 74.3828 151.032 74.2109 151.293C74.0391 151.548 73.888 151.842 73.7578 152.176C73.6328 152.504 73.5365 152.853 73.4688 153.223C73.401 153.592 73.3672 153.962 73.3672 154.332C73.3672 154.785 73.4557 155.129 73.6328 155.363C73.8099 155.592 74.0573 155.707 74.375 155.707ZM80.0859 157.449L82.6641 145.293H85.0156L82.4375 157.449H80.0859ZM91.8047 157.605C91.2318 157.605 90.7057 157.543 90.2266 157.418C89.7526 157.293 89.3516 157.121 89.0234 156.902V154.762C89.4974 155.027 89.9609 155.236 90.4141 155.387C90.8724 155.532 91.3411 155.605 91.8203 155.605C92.0859 155.605 92.3307 155.582 92.5547 155.535C92.7839 155.483 92.9818 155.405 93.1484 155.301C93.3151 155.196 93.4453 155.066 93.5391 154.91C93.6328 154.754 93.6797 154.571 93.6797 154.363C93.6797 154.066 93.6198 153.819 93.5 153.621C93.3854 153.418 93.224 153.23 93.0156 153.058C92.8125 152.887 92.5755 152.702 92.3047 152.504C91.987 152.275 91.6771 152.014 91.375 151.723C91.0781 151.431 90.8333 151.092 90.6406 150.707C90.4479 150.316 90.3516 149.861 90.3516 149.34C90.3516 148.829 90.4427 148.363 90.625 147.941C90.8125 147.519 91.0781 147.152 91.4219 146.84C91.7656 146.527 92.1771 146.288 92.6562 146.121C93.1406 145.949 93.6797 145.863 94.2734 145.863C94.862 145.863 95.4062 145.928 95.9062 146.058C96.4115 146.183 96.901 146.376 97.375 146.637L96.5234 148.457C96.1172 148.264 95.7292 148.121 95.3594 148.027C94.9948 147.928 94.6328 147.879 94.2734 147.879C94.0599 147.879 93.862 147.91 93.6797 147.973C93.5026 148.03 93.3464 148.116 93.2109 148.23C93.0807 148.34 92.9792 148.473 92.9062 148.629C92.8333 148.785 92.7969 148.962 92.7969 149.16C92.7969 149.431 92.8516 149.663 92.9609 149.855C93.0755 150.048 93.237 150.228 93.4453 150.394C93.6589 150.556 93.9141 150.736 94.2109 150.933C94.6328 151.209 94.9818 151.506 95.2578 151.824C95.5391 152.137 95.7474 152.478 95.8828 152.848C96.0234 153.217 96.0938 153.626 96.0938 154.074C96.0938 154.673 95.9818 155.194 95.7578 155.637C95.5339 156.079 95.224 156.446 94.8281 156.738C94.4375 157.03 93.9818 157.249 93.4609 157.394C92.9453 157.535 92.3932 157.605 91.8047 157.605ZM101.234 157.605C100.578 157.605 99.9974 157.47 99.4922 157.199C98.9922 156.928 98.599 156.543 98.3125 156.043C98.0312 155.538 97.8906 154.939 97.8906 154.246C97.8906 153.626 97.9505 153.035 98.0703 152.473C98.1953 151.905 98.3802 151.384 98.625 150.91C98.875 150.431 99.1849 150.017 99.5547 149.668C99.9297 149.314 100.365 149.04 100.859 148.848C101.354 148.65 101.911 148.551 102.531 148.551C103.208 148.551 103.794 148.689 104.289 148.965C104.784 149.236 105.167 149.629 105.438 150.144C105.708 150.66 105.844 151.282 105.844 152.012C105.844 152.605 105.784 153.178 105.664 153.73C105.549 154.277 105.372 154.788 105.133 155.262C104.893 155.73 104.591 156.142 104.227 156.496C103.862 156.845 103.43 157.118 102.93 157.316C102.435 157.509 101.87 157.605 101.234 157.605ZM101.43 155.691C101.69 155.691 101.927 155.626 102.141 155.496C102.354 155.361 102.544 155.176 102.711 154.941C102.878 154.702 103.016 154.428 103.125 154.121C103.24 153.808 103.326 153.473 103.383 153.113C103.445 152.754 103.477 152.387 103.477 152.012C103.477 151.715 103.44 151.452 103.367 151.223C103.299 150.988 103.182 150.806 103.016 150.676C102.854 150.54 102.635 150.473 102.359 150.473C102.073 150.473 101.815 150.553 101.586 150.715C101.362 150.871 101.167 151.082 101 151.348C100.833 151.613 100.695 151.91 100.586 152.238C100.477 152.566 100.393 152.905 100.336 153.254C100.284 153.598 100.258 153.928 100.258 154.246C100.258 154.72 100.354 155.079 100.547 155.324C100.74 155.569 101.034 155.691 101.43 155.691ZM106.836 157.449L109.414 145.293H111.766L109.188 157.449H106.836ZM114.383 157.605C113.883 157.605 113.469 157.504 113.141 157.301C112.812 157.098 112.568 156.808 112.406 156.433C112.245 156.053 112.164 155.608 112.164 155.098C112.164 154.905 112.18 154.657 112.211 154.355C112.242 154.053 112.289 153.746 112.352 153.433L113.344 148.715H115.695L114.625 153.816C114.589 153.993 114.557 154.16 114.531 154.316C114.51 154.473 114.5 154.616 114.5 154.746C114.5 155.074 114.57 155.316 114.711 155.473C114.852 155.629 115.062 155.707 115.344 155.707C115.703 155.707 116.023 155.556 116.305 155.254C116.591 154.946 116.841 154.538 117.055 154.027C117.268 153.512 117.44 152.946 117.57 152.332L118.336 148.715H120.688L118.836 157.449H117.039L117.203 155.832H117.117C116.893 156.176 116.646 156.483 116.375 156.754C116.109 157.019 115.812 157.228 115.484 157.379C115.156 157.53 114.789 157.605 114.383 157.605ZM124.172 157.605C123.479 157.605 122.927 157.459 122.516 157.168C122.104 156.876 121.898 156.35 121.898 155.59C121.898 155.465 121.906 155.329 121.922 155.183C121.938 155.032 121.961 154.876 121.992 154.715L122.891 150.504H121.703L121.93 149.355L123.461 148.699L124.492 146.855H126.008L125.625 148.715H127.836L127.445 150.504H125.242L124.344 154.715C124.328 154.793 124.315 154.871 124.305 154.949C124.299 155.022 124.297 155.082 124.297 155.129C124.297 155.337 124.359 155.486 124.484 155.574C124.609 155.663 124.776 155.707 124.984 155.707C125.198 155.707 125.401 155.683 125.594 155.637C125.792 155.584 126.01 155.517 126.25 155.433V157.191C126 157.311 125.698 157.41 125.344 157.488C124.995 157.566 124.604 157.605 124.172 157.605ZM127.82 157.449L129.672 148.715H132.023L130.172 157.449H127.82ZM131.227 147.629C130.893 147.629 130.612 147.556 130.383 147.41C130.159 147.264 130.047 147.017 130.047 146.668C130.047 146.366 130.102 146.113 130.211 145.91C130.326 145.707 130.49 145.553 130.703 145.449C130.917 145.345 131.172 145.293 131.469 145.293C131.781 145.293 132.052 145.361 132.281 145.496C132.516 145.631 132.633 145.876 132.633 146.23C132.633 146.647 132.518 146.986 132.289 147.246C132.06 147.501 131.706 147.629 131.227 147.629ZM136.328 157.605C135.672 157.605 135.091 157.47 134.586 157.199C134.086 156.928 133.693 156.543 133.406 156.043C133.125 155.538 132.984 154.939 132.984 154.246C132.984 153.626 133.044 153.035 133.164 152.473C133.289 151.905 133.474 151.384 133.719 150.91C133.969 150.431 134.279 150.017 134.648 149.668C135.023 149.314 135.458 149.04 135.953 148.848C136.448 148.65 137.005 148.551 137.625 148.551C138.302 148.551 138.888 148.689 139.383 148.965C139.878 149.236 140.26 149.629 140.531 150.144C140.802 150.66 140.938 151.282 140.938 152.012C140.938 152.605 140.878 153.178 140.758 153.73C140.643 154.277 140.466 154.788 140.227 155.262C139.987 155.73 139.685 156.142 139.32 156.496C138.956 156.845 138.523 157.118 138.023 157.316C137.529 157.509 136.964 157.605 136.328 157.605ZM136.523 155.691C136.784 155.691 137.021 155.626 137.234 155.496C137.448 155.361 137.638 155.176 137.805 154.941C137.971 154.702 138.109 154.428 138.219 154.121C138.333 153.808 138.419 153.473 138.477 153.113C138.539 152.754 138.57 152.387 138.57 152.012C138.57 151.715 138.534 151.452 138.461 151.223C138.393 150.988 138.276 150.806 138.109 150.676C137.948 150.54 137.729 150.473 137.453 150.473C137.167 150.473 136.909 150.553 136.68 150.715C136.456 150.871 136.26 151.082 136.094 151.348C135.927 151.613 135.789 151.91 135.68 152.238C135.57 152.566 135.487 152.905 135.43 153.254C135.378 153.598 135.352 153.928 135.352 154.246C135.352 154.72 135.448 155.079 135.641 155.324C135.833 155.569 136.128 155.691 136.523 155.691ZM141.93 157.449L143.781 148.715H145.578L145.414 150.332H145.484C145.708 149.983 145.956 149.676 146.227 149.41C146.497 149.144 146.797 148.936 147.125 148.785C147.458 148.629 147.828 148.551 148.234 148.551C148.734 148.551 149.151 148.655 149.484 148.863C149.823 149.066 150.076 149.355 150.242 149.73C150.409 150.105 150.492 150.551 150.492 151.066C150.492 151.259 150.477 151.475 150.445 151.715C150.414 151.954 150.37 152.207 150.312 152.473L149.273 157.449H146.922L147.992 152.348C148.034 152.17 148.065 152.004 148.086 151.848C148.107 151.691 148.117 151.548 148.117 151.418C148.117 151.09 148.047 150.848 147.906 150.691C147.766 150.535 147.555 150.457 147.273 150.457C146.919 150.457 146.599 150.611 146.312 150.918C146.026 151.22 145.776 151.626 145.562 152.137C145.354 152.647 145.182 153.212 145.047 153.832L144.281 157.449H141.93ZM158.266 157.605C157.708 157.605 157.221 157.566 156.805 157.488C156.393 157.41 156.008 157.28 155.648 157.098V155.16C156.039 155.384 156.44 155.558 156.852 155.683C157.268 155.803 157.698 155.863 158.141 155.863C158.385 155.863 158.615 155.829 158.828 155.762C159.047 155.694 159.224 155.59 159.359 155.449C159.495 155.308 159.562 155.131 159.562 154.918C159.562 154.772 159.529 154.642 159.461 154.527C159.393 154.413 159.263 154.288 159.07 154.152C158.883 154.012 158.609 153.842 158.25 153.644C157.891 153.441 157.583 153.233 157.328 153.019C157.078 152.806 156.885 152.564 156.75 152.293C156.62 152.022 156.555 151.704 156.555 151.34C156.555 150.736 156.688 150.228 156.953 149.816C157.219 149.4 157.599 149.084 158.094 148.871C158.594 148.657 159.19 148.551 159.883 148.551C160.388 148.551 160.875 148.608 161.344 148.723C161.812 148.837 162.271 149.027 162.719 149.293L161.945 150.973C161.638 150.785 161.31 150.629 160.961 150.504C160.617 150.379 160.273 150.316 159.93 150.316C159.674 150.316 159.445 150.376 159.242 150.496C159.039 150.616 158.938 150.801 158.938 151.051C158.938 151.186 158.974 151.311 159.047 151.426C159.12 151.535 159.242 151.647 159.414 151.762C159.591 151.876 159.828 152.012 160.125 152.168C160.479 152.35 160.792 152.553 161.062 152.777C161.339 152.996 161.555 153.251 161.711 153.543C161.867 153.829 161.945 154.17 161.945 154.566C161.945 155.233 161.794 155.793 161.492 156.246C161.19 156.694 160.763 157.032 160.211 157.262C159.664 157.491 159.016 157.605 158.266 157.605ZM167.094 157.605C166.438 157.605 165.857 157.47 165.352 157.199C164.852 156.928 164.458 156.543 164.172 156.043C163.891 155.538 163.75 154.939 163.75 154.246C163.75 153.626 163.81 153.035 163.93 152.473C164.055 151.905 164.24 151.384 164.484 150.91C164.734 150.431 165.044 150.017 165.414 149.668C165.789 149.314 166.224 149.04 166.719 148.848C167.214 148.65 167.771 148.551 168.391 148.551C169.068 148.551 169.654 148.689 170.148 148.965C170.643 149.236 171.026 149.629 171.297 150.144C171.568 150.66 171.703 151.282 171.703 152.012C171.703 152.605 171.643 153.178 171.523 153.73C171.409 154.277 171.232 154.788 170.992 155.262C170.753 155.73 170.451 156.142 170.086 156.496C169.721 156.845 169.289 157.118 168.789 157.316C168.294 157.509 167.729 157.605 167.094 157.605ZM167.289 155.691C167.549 155.691 167.786 155.626 168 155.496C168.214 155.361 168.404 155.176 168.57 154.941C168.737 154.702 168.875 154.428 168.984 154.121C169.099 153.808 169.185 153.473 169.242 153.113C169.305 152.754 169.336 152.387 169.336 152.012C169.336 151.715 169.299 151.452 169.227 151.223C169.159 150.988 169.042 150.806 168.875 150.676C168.714 150.54 168.495 150.473 168.219 150.473C167.932 150.473 167.674 150.553 167.445 150.715C167.221 150.871 167.026 151.082 166.859 151.348C166.693 151.613 166.555 151.91 166.445 152.238C166.336 152.566 166.253 152.905 166.195 153.254C166.143 153.598 166.117 153.928 166.117 154.246C166.117 154.72 166.214 155.079 166.406 155.324C166.599 155.569 166.893 155.691 167.289 155.691ZM176.211 161.293C175.961 161.293 175.714 161.272 175.469 161.23C175.219 161.194 175.013 161.15 174.852 161.098V159.207C175.018 159.264 175.172 159.306 175.312 159.332C175.453 159.358 175.599 159.371 175.75 159.371C176.068 159.371 176.346 159.264 176.586 159.051C176.826 158.842 176.995 158.506 177.094 158.043L178.688 150.504H177.414L177.648 149.371L179.078 148.715L179.219 148.058C179.333 147.527 179.484 147.079 179.672 146.715C179.865 146.35 180.094 146.058 180.359 145.84C180.625 145.616 180.93 145.454 181.273 145.355C181.622 145.256 182.01 145.207 182.438 145.207C182.797 145.207 183.128 145.241 183.43 145.308C183.737 145.376 184.018 145.47 184.273 145.59L183.648 147.34C183.497 147.272 183.339 147.215 183.172 147.168C183.005 147.121 182.818 147.098 182.609 147.098C182.312 147.098 182.073 147.202 181.891 147.41C181.708 147.618 181.586 147.892 181.523 148.23L181.43 148.715H183.141L182.758 150.504H181.039L179.359 158.394C179.25 158.926 179.073 159.41 178.828 159.848C178.589 160.29 178.255 160.642 177.828 160.902C177.406 161.163 176.867 161.293 176.211 161.293ZM185.703 157.605C185.281 157.605 184.883 157.501 184.508 157.293C184.133 157.084 183.826 156.749 183.586 156.285C183.352 155.821 183.234 155.207 183.234 154.441C183.234 153.868 183.294 153.301 183.414 152.738C183.539 152.176 183.716 151.644 183.945 151.144C184.18 150.639 184.461 150.194 184.789 149.808C185.122 149.418 185.497 149.111 185.914 148.887C186.336 148.663 186.792 148.551 187.281 148.551C187.651 148.551 187.974 148.605 188.25 148.715C188.526 148.819 188.763 148.967 188.961 149.16C189.159 149.353 189.32 149.577 189.445 149.832H189.508L189.953 148.715H191.766L189.906 157.449H188.148L188.258 156.316H188.195C187.987 156.571 187.76 156.795 187.516 156.988C187.271 157.181 187 157.332 186.703 157.441C186.406 157.551 186.073 157.605 185.703 157.605ZM186.625 155.707C186.948 155.707 187.247 155.582 187.523 155.332C187.799 155.077 188.036 154.746 188.234 154.34C188.432 153.933 188.573 153.504 188.656 153.051C188.698 152.842 188.727 152.634 188.742 152.426C188.763 152.212 188.773 151.983 188.773 151.738C188.773 151.368 188.674 151.064 188.477 150.824C188.284 150.579 188.018 150.457 187.68 150.457C187.451 150.457 187.232 150.532 187.023 150.683C186.82 150.829 186.633 151.032 186.461 151.293C186.289 151.548 186.138 151.842 186.008 152.176C185.883 152.504 185.786 152.853 185.719 153.223C185.651 153.592 185.617 153.962 185.617 154.332C185.617 154.785 185.706 155.129 185.883 155.363C186.06 155.592 186.307 155.707 186.625 155.707ZM192.336 157.449L194.188 148.715H195.984L195.82 150.332H195.906C196.141 149.962 196.396 149.644 196.672 149.379C196.948 149.113 197.247 148.91 197.57 148.769C197.893 148.624 198.245 148.551 198.625 148.551C198.75 148.551 198.883 148.558 199.023 148.574C199.169 148.59 199.286 148.611 199.375 148.637L198.859 150.902C198.776 150.871 198.664 150.842 198.523 150.816C198.388 150.79 198.24 150.777 198.078 150.777C197.786 150.777 197.508 150.837 197.242 150.957C196.977 151.071 196.732 151.243 196.508 151.473C196.284 151.702 196.086 151.991 195.914 152.34C195.747 152.683 195.615 153.084 195.516 153.543L194.688 157.449H192.336Z" fill="#BABABA"/>
<path d="M53.0601 8.20472C48.6937 14.7951 53.8132 25.4802 47.335 30.4369C41.0284 35.262 33.2814 27.3533 27.3377 31.5065C18.521 37.6679 20.1308 65.8601 33.0215 83.3764C36.8982 88.6442 40.1374 90.6937 41.5718 96.6513C44.6522 109.444 33.8257 117.054 35.8861 123.38C40.5249 137.626 111.869 149.581 140.495 106.767C153.865 86.7706 155.865 57.8964 143.92 35.966C122.334 -3.66119 62.8568 -6.58342 53.0601 8.20472Z" fill="#F4F7FA"/>
<path d="M57.4008 51.6088L57.2119 57.6614C57.1567 59.4375 58.4616 60.8108 60.1257 60.7299L63.15 60.5827C63.4387 63.4596 64.0178 66.2229 64.8587 68.8394L62.304 70.5121C60.8367 71.4725 60.2821 73.4621 61.0659 74.9554L63.7343 80.0403C64.5162 81.5307 68.2927 82.417 69.7559 81.4542L70.2172 79.4046C71.8344 81.6102 73.686 83.5993 75.7349 85.3359L74.3371 87.8588C73.4633 89.436 73.8925 91.3661 75.2949 92.1695L80.0682 94.9031C81.4665 95.7036 86.0054 95.8279 86.8751 94.2537L85.5126 91.077C87.9911 91.9999 90.6089 92.6283 93.332 92.9301L93.2485 95.6119C93.1937 97.3719 94.475 98.7204 96.1094 98.6248L101.671 98.2997C103.299 98.2046 104.663 96.7055 104.718 94.9504L104.801 92.2768C107.534 91.6659 110.175 90.7425 112.689 89.5432L113.864 91.8083C114.626 93.2781 119.307 94.0338 120.734 93.0792L122.688 89.4891C124.111 88.5369 124.65 86.5766 123.891 85.1091L122.677 82.7593C124.79 80.8179 126.722 78.6509 128.434 76.2986L130.691 77.6173C132.055 78.4139 136.092 78.8215 136.941 77.2697L137.587 70.9655C138.434 69.4166 138.019 67.5143 136.66 66.7148L134.289 65.32C135.263 62.6581 135.991 59.8792 136.446 57.0174L139.358 56.8755C140.957 56.798 142.296 55.3257 142.351 53.5867L142.535 47.6598C142.59 45.9208 141.339 44.5708 139.74 44.6435L136.657 44.7839C136.306 42.0318 135.687 39.3894 134.827 36.8869L137.649 35.0299C139.062 34.0997 139.597 32.1525 138.844 30.6788L139.381 24.7894C138.627 23.3132 133.761 23.7305 132.344 24.6583L129.374 26.6025C127.831 24.5671 126.084 22.7218 124.163 21.0974L125.993 17.7856C126.845 16.2426 126.427 14.3271 125.06 13.5066L123.025 10.2933C121.653 9.47037 117.211 10.4669 116.354 12.0128L114.475 15.4065C112.182 14.5484 109.768 13.9386 107.257 13.61L107.378 9.72486C107.432 7.97025 106.159 6.59543 104.531 6.65344L98.9736 6.85235C97.3401 6.91086 95.9711 8.38416 95.9159 10.1441L95.7943 14.04C93.2387 14.5606 90.7579 15.3582 88.3786 16.3991L89.4831 12.2888C88.7095 10.7916 84.1046 11.1636 82.6526 12.0986L77.6946 15.291C76.2379 16.2285 75.6871 18.2054 76.4644 19.7045L78.1313 22.9178C76.056 24.7212 74.1413 26.7386 72.4219 28.9358L72.5472 26.877C71.1402 26.0497 66.2193 26.9779 65.3418 28.5468L62.3476 33.8984C61.4687 35.4702 61.9003 37.413 63.312 38.2383L66.1242 39.8818C65.0708 42.5125 64.2582 45.266 63.7171 48.1083L60.5155 48.2541C58.8514 48.3301 57.4569 49.8308 57.4017 51.6068L57.4008 51.6088ZM71.5569 54.5734C72.0911 37.449 85.4472 23.0329 101.3 22.3772C117.058 21.7258 129.333 34.9305 128.804 51.8676C128.276 68.8048 115.139 83.2102 99.3759 84.0483C83.5167 84.8917 71.0223 71.6978 71.5565 54.5734H71.5569Z" fill="#AEB7C4"/>
<path d="M61.1249 51.557L60.936 57.6097C60.8808 59.3857 62.1857 60.7591 63.8498 60.6782L66.8741 60.5309C67.1628 63.4078 67.7419 66.1711 68.5828 68.7877L66.0281 70.4604C64.5608 71.4208 64.0062 73.4104 64.7896 74.9037L67.4579 79.9886C68.2399 81.4795 70.0604 81.9061 71.5235 80.9432L73.9404 79.3524C75.5576 81.558 77.4092 83.5471 79.458 85.2836L78.0603 87.8066C77.1865 89.3837 77.6157 91.3139 79.0181 92.1173L83.7914 94.8509C85.1896 95.6514 87.0273 95.0235 87.897 93.4487L89.2358 91.0243C91.7143 91.9472 94.3321 92.5756 97.0552 92.8774L96.9717 95.5592C96.9169 97.3187 98.1982 98.6677 99.8326 98.5722L105.394 98.247C107.022 98.1519 108.386 96.6528 108.441 94.8982L108.524 92.2241C111.257 91.6132 113.898 90.6898 116.412 89.4905L117.587 91.7556C118.35 93.2255 120.125 93.6413 121.552 92.6867L126.411 89.4364C127.834 88.4843 128.373 86.5239 127.614 85.0565L126.4 82.7066C128.513 80.7652 130.445 78.5982 132.158 76.2459L134.414 77.5646C135.777 78.3613 137.57 77.7489 138.419 76.1971L141.309 70.9133C142.157 69.3644 141.742 67.4621 140.383 66.6626L138.011 65.2677C138.985 62.6059 139.714 59.827 140.169 56.9652L143.081 56.8233C144.68 56.7453 146.019 55.2734 146.073 53.5344L146.258 47.6076C146.312 45.8686 145.061 44.5186 143.463 44.5913L140.379 44.7317C140.029 41.9796 139.409 39.3372 138.55 36.8347L141.372 34.9777C142.785 34.0475 143.32 32.1003 142.566 30.6265L139.997 25.5997C139.243 24.1234 137.484 23.6783 136.066 24.6061L133.096 26.5503C131.553 24.5149 129.807 22.6696 127.885 21.0452L129.715 17.7334C130.567 16.1904 130.15 14.2749 128.782 13.4544L124.112 10.6531C122.74 9.83012 120.933 10.4151 120.077 11.9611L118.197 15.3548C115.904 14.4967 113.49 13.8868 110.979 13.5582L111.1 9.67313C111.155 7.91853 109.881 6.5437 108.253 6.60172L102.696 6.80063C101.063 6.85913 99.6934 8.33243 99.6382 10.0924L99.5166 13.9882C96.961 14.5089 94.4801 15.3065 92.1009 16.3474L90.4048 13.0653C89.6312 11.5681 87.8269 11.1118 86.3749 12.0464L81.4168 15.2387C79.9602 16.1763 79.4093 18.1532 80.1866 19.6523L81.8535 22.8656C79.7782 24.669 77.8635 26.6864 76.1442 28.8836L73.2016 27.1534C71.7946 26.3261 69.9416 26.9257 69.0645 28.4946L66.0704 33.8462C65.1914 35.418 65.623 37.3607 67.0347 38.1861L69.8469 39.8296C68.7935 42.4603 67.9809 45.2138 67.4398 48.0561L64.2383 48.2019C62.5741 48.2774 61.1796 49.7785 61.1244 51.5546L61.1249 51.557ZM74.0666 54.5792C74.6235 36.7284 88.5462 21.7004 105.072 21.0174C121.497 20.3383 134.294 34.1031 133.743 51.7589C133.192 69.4147 119.498 84.431 103.066 85.3051C86.534 86.1841 73.5097 72.4305 74.0666 54.5797V54.5792Z" fill="#D8DEE8"/>
<path d="M85.9426 116.245L105.833 116.84V115.819L86.4015 115.254V107.097L85.4832 107.077V115.729C85.4832 116.007 85.6887 116.238 85.9421 116.245L85.9426 116.245Z" fill="url(#paint0_linear_104_2257)"/>
<path d="M87.6394 70.5643L88.561 70.557V65.4906L96.6798 65.3921C96.9378 65.3892 97.1475 65.1596 97.1475 64.8792V55.0097L96.2129 55.0292V64.3844L88.1002 64.4892C87.8459 64.4926 87.6394 64.7203 87.6394 64.9982V70.5638V70.5643Z" fill="url(#paint1_linear_104_2257)"/>
<path d="M76.4148 47.2921L83.0017 47.1303V46.1284L76.4148 46.2952V47.2921Z" fill="url(#paint2_linear_104_2257)"/>
<path d="M78.9012 70.4697L79.8094 70.4624V65.0967C79.8094 64.8207 79.6061 64.5994 79.3551 64.6028L70.0066 64.7237V65.7153L78.9012 65.6076V70.4697Z" fill="url(#paint3_linear_104_2257)"/>
<path d="M70.6184 93.6267L57.5532 93.7384V94.73L70.6184 94.6266V93.6267Z" fill="url(#paint4_linear_104_2257)"/>
<path d="M64.6002 110.813L64.5208 102.084H75.4137L75.4053 100.902H63.5115L63.595 110.813H64.6002Z" fill="url(#paint5_linear_104_2257)"/>
<path d="M66.78 88.123L75.7058 70.9874C75.864 70.6832 76.1573 70.4945 76.4742 70.4916L94.7582 70.3444C95.0854 70.3419 95.3875 70.5292 95.5513 70.8358L104.916 88.3799C105.083 88.6915 105.083 89.0737 104.916 89.3828L95.5513 106.793C95.3875 107.097 95.0854 107.28 94.7582 107.273L76.4742 106.865C76.1573 106.857 75.8645 106.664 75.7058 106.358L66.78 89.0947C66.6241 88.7929 66.6241 88.4224 66.78 88.123Z" fill="url(#paint6_linear_104_2257)"/>
<path d="M44.7186 39.5742L75.9888 38.4797C76.4788 38.4626 76.8765 38.8873 76.8765 39.4284V54.6436C76.8765 55.1848 76.4788 55.6318 75.9888 55.6421L44.7186 56.2885C44.254 56.2983 43.8777 55.8795 43.8777 55.353V40.557C43.8777 40.031 44.254 39.5908 44.7186 39.5747V39.5742Z" fill="url(#paint7_linear_104_2257)"/>
<path d="M82.771 39.2265V54.5168C82.771 55.0609 83.1724 55.4933 83.6694 55.4826L98.6757 55.1725L97.7829 51.7569L94.8416 50.0603L98.2441 50.1817L93.8615 46.6676L93.9191 41.942L92.3042 44.7287L90.3871 37.9745L83.6689 38.2095C83.1719 38.2276 82.7705 38.682 82.7705 39.226L82.771 39.2265Z" fill="url(#paint8_linear_104_2257)"/>
<path d="M104.019 106.345L132.357 106.978C132.897 106.99 133.335 107.46 133.335 108.028V124.002C133.335 124.57 132.897 125.014 132.357 124.994L104.019 123.955C103.504 123.936 103.086 123.472 103.086 122.917V107.328C103.086 106.774 103.504 106.334 104.019 106.345Z" fill="url(#paint9_linear_104_2257)"/>
<path d="M66.3188 88.1245L75.2446 70.9889C75.4028 70.6847 75.6961 70.496 76.0131 70.4931L94.297 70.3459C94.6242 70.3434 94.9263 70.5306 95.0901 70.8373L104.455 88.3814C104.621 88.693 104.621 89.0752 104.455 89.3843L95.0901 106.794C94.9263 107.099 94.6242 107.281 94.297 107.274L76.0131 106.866C75.6961 106.859 75.4033 106.666 75.2446 106.359L66.3188 89.0962C66.1629 88.7944 66.1629 88.4238 66.3188 88.1245Z" fill="url(#paint10_linear_104_2257)"/>
<g style="mix-blend-mode:soft-light" opacity="0.31">
<path d="M94.153 106.006L103.358 88.8743L94.153 71.6115L76.1521 71.7377L67.3499 88.6174L76.1521 105.623L94.153 106.006Z" fill="white"/>
</g>
<path d="M44.2568 39.3318L75.527 38.2373C76.017 38.2203 76.4147 38.6449 76.4147 39.1861V54.4013C76.4147 54.9424 76.017 55.3895 75.527 55.3997L44.2568 56.0457C43.7922 56.0555 43.4159 55.6367 43.4159 55.1102V40.3142C43.4159 39.7882 43.7922 39.3479 44.2568 39.3318Z" fill="url(#paint11_linear_104_2257)"/>
<g style="mix-blend-mode:soft-light" opacity="0.3">
<path d="M75.2862 54.1595V39.4903L44.4856 40.5365V54.8284L75.2862 54.1595Z" fill="white"/>
</g>
<path d="M103.558 106.82L131.896 107.452C132.436 107.465 132.874 107.935 132.874 108.503V124.476C132.874 125.044 132.436 125.489 131.896 125.469L103.558 124.43C103.043 124.411 102.625 123.946 102.625 123.392V107.803C102.625 107.249 103.043 106.808 103.558 106.82Z" fill="url(#paint12_linear_104_2257)"/>
<g style="mix-blend-mode:soft-light" opacity="0.3">
<path d="M131.63 124.152V108.753L103.812 108.103V123.162L131.63 124.152Z" fill="white"/>
</g>
<path d="M93.3864 95.7055L76.993 95.7543C76.2737 95.7562 75.6045 95.3472 75.2454 94.6861C74.8866 94.0255 74.8866 93.2031 75.2454 92.5386L83.3831 77.4803C83.7483 76.8056 84.4277 76.378 85.1572 76.3649C85.8876 76.3517 86.5689 76.7559 86.9341 77.4199L95.1907 92.4294C95.5596 93.1002 95.5577 93.9358 95.1865 94.6101C94.8148 95.2838 94.1252 95.7031 93.3869 95.7051L93.3864 95.7055ZM85.1554 77.885C84.9368 77.8884 84.7326 78.0166 84.6226 78.2194L76.4686 93.285C76.3605 93.4844 76.3605 93.7311 76.4686 93.9295C76.5763 94.1279 76.7772 94.2503 76.993 94.2493L93.3892 94.181C93.6105 94.1801 93.817 94.0538 93.9284 93.852C94.0393 93.6501 94.0398 93.4 93.9293 93.1987L85.6876 78.2009C85.5781 78.002 85.3744 77.8806 85.1554 77.884V77.885Z" fill="white"/>
<path d="M86.0312 90.5168C85.8233 90.3057 85.5301 90.2014 85.1505 90.2043C84.7574 90.2072 84.4585 90.313 84.2534 90.5222C84.0478 90.7313 83.9453 91.038 83.9448 91.4431C83.9448 91.8341 84.0492 92.1359 84.2585 92.3494C84.4683 92.5629 84.7648 92.6687 85.1481 92.6668C85.5226 92.6648 85.8155 92.5532 86.0257 92.3323C86.2364 92.1115 86.3417 91.8102 86.3422 91.428C86.3422 91.0316 86.2387 90.7279 86.0308 90.5168H86.0312Z" fill="white"/>
<path d="M84.6952 88.9986L85.6219 88.9913C85.8312 88.9898 86.0038 88.7968 86.015 88.5759L86.3305 82.3054C86.3361 82.1913 86.2976 82.0957 86.2233 82.0138C86.1491 81.9319 86.046 81.9022 85.9379 81.9036L84.3935 81.9246C84.2859 81.9261 84.1828 81.9543 84.1086 82.0377C84.0343 82.1216 83.9958 82.223 84.0009 82.3366L84.3035 88.5949C84.3142 88.8153 84.4859 89.0001 84.6947 88.9986H84.6952Z" fill="white"/>
<path d="M44.9528 61.3427L69.2408 60.9498C69.7127 60.942 70.0956 61.3607 70.0956 61.8843V76.6145C70.0956 77.1386 69.7127 77.5637 69.2408 77.5647L44.9528 77.609C44.5008 77.61 44.1346 77.1951 44.1346 76.6832V62.2831C44.1346 61.7707 44.5008 61.35 44.9528 61.3427Z" fill="url(#paint13_linear_104_2257)"/>
<path d="M44.5042 61.1067L68.7921 60.7138C69.2641 60.706 69.6469 61.1247 69.6469 61.6484V76.3785C69.6469 76.9026 69.2641 77.3277 68.7921 77.3287L44.5042 77.373C44.0522 77.374 43.686 76.9591 43.686 76.4472V62.0471C43.686 61.5348 44.0522 61.114 44.5042 61.1067Z" fill="url(#paint14_linear_104_2257)"/>
<g style="mix-blend-mode:soft-light" opacity="0.3">
<path d="M68.5601 76.124V61.9229L44.7264 62.2836V76.1923L68.5601 76.124Z" fill="white"/>
</g>
<path d="M87.5801 29.5355L98.0219 33.4791L101.8 22.4152L102.778 23.946L100.847 39.8423L91.3849 37.4339L90.4076 35.9031L87.5801 29.5355Z" fill="url(#paint15_linear_104_2257)"/>
<path d="M37.6705 69.9022L37.6978 69.8885C33.8503 62.1778 32.7765 53.0542 35.0211 44.2295C39.8195 25.3666 58.2162 14.0687 76.0306 19.0444C84.8672 21.5127 92.1743 27.523 96.6061 35.9674C97.2251 37.1472 98.634 37.568 99.7533 36.9074C100.872 36.2468 101.277 34.754 100.658 33.5746C95.6134 23.9611 87.2952 17.1196 77.2353 14.3095C56.9554 8.64495 36.0124 21.5069 30.5499 42.9805C29.8724 45.6443 29.4603 48.3306 29.3025 51.0061C28.5262 64.1435 33.8772 76.983 43.9858 85.2203C44.4295 85.5815 44.9585 85.7453 45.4792 85.7244L37.6714 69.9022H37.6705Z" fill="url(#paint16_linear_104_2257)"/>
<path d="M88.5579 31.0663L98.9992 35.0099L102.778 23.946L105.605 30.314L101.824 41.3731L91.3849 37.4339L88.5579 31.0663Z" fill="url(#paint17_linear_104_2257)"/>
<path d="M38.6482 71.4325L38.6756 71.4189C34.8281 63.7082 33.7543 54.5846 35.9989 45.7599C40.7973 26.897 59.194 15.599 77.0084 20.5747C85.845 23.0431 93.1521 29.0533 97.5839 37.4978C98.2029 38.6776 99.6118 39.0983 100.731 38.4377C101.85 37.7766 102.255 36.2843 101.636 35.105C96.5912 25.4915 88.273 18.65 78.2131 15.8399C57.9332 10.1753 36.9901 23.0372 31.5277 44.5108C30.8502 47.1747 30.4381 49.861 30.2803 52.5365C29.5039 65.6739 34.855 78.5134 44.9636 86.7506C45.4073 87.1119 45.9363 87.2757 46.457 87.2547L38.6492 71.4325H38.6482Z" fill="url(#paint18_linear_104_2257)"/>
<path d="M114.165 98.6336L114.282 100.596C114.282 100.596 114.016 100.891 113.506 100.686L112.949 98.7589L114.165 98.6336Z" fill="url(#paint19_linear_104_2257)"/>
<path d="M113.931 100.076C113.931 100.076 114.846 100.468 114.669 100.893C114.574 101.121 114.244 101.637 113.958 102.065C113.694 102.462 113.218 102.638 112.776 102.499C112.628 102.452 112.477 102.407 112.343 102.37C112.065 102.295 112.05 101.888 112.319 101.787C112.45 101.739 112.58 101.7 112.693 101.681C113.028 101.627 113.489 100.796 113.543 100.463C113.596 100.13 113.931 100.076 113.931 100.076V100.076Z" fill="url(#paint20_linear_104_2257)"/>
<path d="M116.13 79.8C114.783 80.2885 109.8 82.2674 108.69 86.8057C108.631 87.048 108.479 87.7218 108.472 88.8222C108.443 93.403 110.979 97.2798 112.823 99.5356C113.404 99.5253 113.986 99.5151 114.567 99.5048C114.857 98.3358 115.124 96.587 114.707 94.6193C114.069 91.6123 112.414 90.8322 112.733 89.356C113.313 86.6756 119.237 87.0812 119.795 84.6811C119.997 83.8143 119.554 82.3429 116.13 79.8005V79.8Z" fill="url(#paint21_linear_104_2257)"/>
<path d="M132.795 107.225L130.265 107.163C130.109 107.159 130.043 106.955 130.162 106.85C130.28 106.746 130.442 106.661 130.65 106.684C131.131 106.736 132.211 106.029 132.7 106.181C132.86 106.231 132.99 106.626 133.057 106.735C133.188 106.95 133.038 107.231 132.795 107.225Z" fill="url(#paint22_linear_104_2257)"/>
<path d="M131.658 105.184L132.7 106.181C132.7 106.181 132.336 106.467 131.806 106.344L130.741 105.575L131.658 105.184Z" fill="url(#paint23_linear_104_2257)"/>
<g style="mix-blend-mode:color-burn" opacity="0.3">
<path d="M111.66 91.6196C110.962 89.6373 110.123 87.1938 111.081 85.8063C112.049 84.4022 114.171 85.5874 116.3 84.4559C117.089 84.0361 117.901 83.2848 118.576 81.9256C119.771 83.2214 119.933 84.0917 119.796 84.6816C119.238 87.0817 113.313 86.6761 112.734 89.3565C112.415 90.8327 114.069 91.6128 114.707 94.6198C115.066 96.3115 114.919 97.8399 114.686 98.9788C114.479 97.9213 114.157 96.8103 113.664 95.6894C112.901 93.9514 112.397 93.7077 111.66 91.6196Z" fill="url(#paint24_linear_104_2257)"/>
</g>
<path d="M115.358 79.2276C116.178 83.183 117.926 89.2229 121.929 95.5276C124.893 100.195 128.149 103.521 130.703 105.742C130.884 105.799 131.194 105.87 131.574 105.82C131.856 105.784 132.08 105.694 132.23 105.619C132.054 104.504 131.683 102.857 130.803 101.077C129.193 97.8214 127.759 97.9258 126.142 95.0523C124.958 92.9481 124.573 90.7133 123.803 86.2427C123.208 82.791 123.208 81.9656 122.393 80.9759C120.747 78.9746 117.656 78.9522 115.357 79.2272L115.358 79.2276Z" fill="url(#paint25_linear_104_2257)"/>
<g style="mix-blend-mode:multiply" opacity="0.3">
<path d="M130.187 101.814C129.612 100.861 128.593 99.869 126.581 97.9116C124.503 95.8888 124.583 96.2545 124.174 95.6568C122.342 92.9807 123.334 90.1209 122.881 86.6702C122.629 84.7449 121.82 82.2288 119.464 79.4104C120.568 79.6245 121.625 80.0842 122.395 80.9764C123.34 82.0718 123.27 83.1444 123.804 86.2431C124.574 90.7132 124.959 92.9486 126.143 95.0527C127.761 97.9262 129.194 97.8219 130.804 101.078C131.684 102.857 132.055 104.504 132.231 105.619C132.081 105.695 131.857 105.784 131.575 105.821C131.351 105.849 131.153 105.837 130.989 105.81C131.122 103.548 130.479 102.297 130.187 101.814L130.187 101.814Z" fill="url(#paint26_linear_104_2257)"/>
</g>
<path d="M113.144 53.5237C113.144 53.5237 112.47 58.7939 117.756 62.5093L112.131 63.9188C112.131 63.9188 110.331 60.3823 111.634 54.5246L113.144 53.5233V53.5237Z" fill="url(#paint27_linear_104_2257)"/>
<path d="M112.154 54.5251C112.154 54.5251 111.851 53.7392 111.9 53.3853C111.949 53.0314 112.75 52.5589 113.297 52.0714C113.844 51.5839 113.277 52.5619 113.15 52.7842C113.022 53.007 112.576 53.3404 112.64 54.0971L112.154 54.5251H112.154Z" fill="url(#paint28_linear_104_2257)"/>
<path d="M118.448 58.537C118.171 57.9656 118.057 57.969 117.99 57.6672C117.835 56.9798 118.234 56.1067 118.572 56.0945C118.791 56.0867 118.809 56.4431 119.271 56.9984C119.837 57.6789 120.18 57.5897 120.513 58.1801C120.591 58.3181 120.941 58.9402 120.726 59.4043C120.451 59.9966 119.366 60.0907 118.913 59.6334C118.698 59.4165 118.788 59.241 118.448 58.5365V58.537Z" fill="url(#paint29_linear_104_2257)"/>
<path d="M119.261 59.1537C119.261 59.1537 119.067 60.2399 119.205 61.1233C119.33 61.9214 120.737 62.7507 121.007 62.9886C121.277 63.2265 120.291 63.4844 119.387 63.3601C118.483 63.2358 116.009 62.4041 115.633 61.9404C115.257 61.4768 116.071 61.7054 116.755 61.6177C117.44 61.5299 118.093 60.3248 118.113 59.7095C118.133 59.0942 119.261 59.1542 119.261 59.1542V59.1537Z" fill="url(#paint30_linear_104_2257)"/>
<path d="M118.966 59.9644C118.966 59.9644 118.274 60.2838 117.661 59.7689C117.112 59.3077 117.928 57.892 118.487 57.8739C118.673 57.8681 118.945 58.008 119.105 58.2132C119.2 58.3342 119.205 58.4151 119.364 58.6096C119.51 58.789 119.575 58.8056 119.597 58.8924C119.624 59.0016 119.577 59.1839 119.201 59.4974C119.388 59.4613 119.549 59.513 119.612 59.6276C119.622 59.6461 119.643 59.7031 119.636 59.7621C119.614 59.9757 119.348 60.0746 118.966 59.9649V59.9644Z" fill="url(#paint31_linear_104_2257)"/>
<path d="M103.76 56.1861C103.76 56.1861 103.341 56.1247 103.472 55.2842C103.574 54.6251 103.497 54.4038 103.348 54.5203C103.2 54.6373 103.179 55.018 103.179 55.018C103.179 55.018 102.639 54.5339 102.417 53.8996C102.195 53.2654 102.052 53.7997 102.004 54.1166C101.956 54.4335 102.322 55.4183 102.528 55.6021C102.735 55.7859 103.036 56.5947 103.036 56.5947L103.76 56.1861Z" fill="url(#paint32_linear_104_2257)"/>
<path d="M102.643 56.4114C103.119 56.0609 103.596 55.7098 104.073 55.3593C104.653 59.105 105.972 60.5749 107.091 61.2179C109.793 62.7692 112.204 60.005 117.374 61.1331C118.799 61.4441 121.283 62.0228 122.66 64.1558C123.022 64.7164 123.151 65.1406 123.752 69.1622C124.52 74.3022 124.548 75.1992 124.439 76.3064C124.241 78.3321 124.121 79.5592 123.232 80.6459C120.871 83.5306 115.854 82.0431 115.225 81.8476C114.063 81.4859 112.257 80.9237 111.539 79.311C111.201 78.5519 111.238 77.8582 111.756 75.0822C112.784 69.5839 112.916 69.228 112.629 68.6259C111.66 66.5939 108.593 67.7566 106.001 65.867C104.485 64.7622 102.777 62.3543 102.643 56.4124V56.4114Z" fill="url(#paint33_linear_104_2257)"/>
<path style="mix-blend-mode:multiply" opacity="0.3" d="M117.577 81.1124C117.071 80.0223 117.751 79.018 117.005 77.7075C116.054 76.0377 114.344 76.6047 113.7 75.3708C112.599 73.2608 116.931 70.3181 116.052 66.959C115.631 65.355 114.164 64.1942 112.938 63.7545C110.216 62.778 108.436 65.2668 105.884 64.4887C105.279 64.3044 104.585 63.9222 103.883 63.129C104.504 64.5043 105.274 65.3355 106.001 65.865C108.593 67.7546 111.661 66.5919 112.629 68.6239C112.916 69.226 112.785 69.5819 111.757 75.0802C111.238 77.8562 111.202 78.55 111.54 79.309C112.257 80.9223 114.063 81.4844 115.225 81.8456C115.569 81.9529 117.229 82.4458 119.048 82.398C118.236 82.0519 117.8 81.5926 117.577 81.1114V81.1124Z" fill="url(#paint34_linear_104_2257)"/>
<path d="M101.781 48.5534L102.948 51.3552L102.462 54.6197L108.293 58.2844C108.735 58.5696 109.326 58.4209 109.613 57.9519L117.662 44.7717C117.947 44.3036 117.818 43.6967 117.372 43.4173L107.337 37.1389L105.715 45.5907L103.632 40.5877L101.781 48.5544V48.5534Z" fill="url(#paint35_linear_104_2257)"/>
<path d="M32.4098 85.4626L58.1025 85.0472C58.6018 85.0389 59.0069 85.4821 59.0069 86.0359V101.618C59.0069 102.172 58.6018 102.622 58.1025 102.623L32.4098 102.67C31.9318 102.671 31.5443 102.233 31.5443 101.691V86.4576C31.5443 85.916 31.9318 85.4704 32.4098 85.4626Z" fill="url(#paint36_linear_104_2257)"/>
<path d="M31.9351 85.2129L57.6277 84.7976C58.1271 84.7893 58.5322 85.2324 58.5322 85.7863V101.368C58.5322 101.922 58.1271 102.372 57.6277 102.373L31.9351 102.42C31.4571 102.421 31.0696 101.982 31.0696 101.441V86.2075C31.0696 85.6659 31.4571 85.2203 31.9351 85.2125V85.2129Z" fill="#AEB7C4"/>
<g style="mix-blend-mode:soft-light" opacity="0.3">
<path d="M57.3822 101.099V86.0764L32.1703 86.4581V101.171L57.3822 101.099Z" fill="white"/>
</g>
<path d="M56.4985 101.334C56.3769 101.334 56.2781 101.23 56.2776 101.102C56.2776 100.974 56.376 100.87 56.498 100.87L57.1612 100.868V100.171C57.1612 100.043 57.26 99.9392 57.3821 99.9392C57.5041 99.9392 57.6029 100.043 57.6029 100.171V101.1C57.6029 101.227 57.5046 101.331 57.3825 101.332L56.4989 101.334H56.4985V101.334Z" fill="white"/>
<path d="M57.382 98.522C57.26 98.522 57.1611 98.4181 57.1611 98.2899V96.409C57.1611 96.2808 57.26 96.177 57.382 96.177C57.5041 96.177 57.6029 96.2808 57.6029 96.409V98.2899C57.6029 98.4181 57.5041 98.522 57.382 98.522ZM57.382 94.7602C57.26 94.7602 57.1611 94.6564 57.1611 94.5282V92.6473C57.1611 92.5191 57.26 92.4152 57.382 92.4152C57.5041 92.4152 57.6029 92.5191 57.6029 92.6473V94.5282C57.6029 94.6564 57.5041 94.7602 57.382 94.7602ZM57.382 90.9985C57.26 90.9985 57.1611 90.8946 57.1611 90.7664V88.8855C57.1611 88.7573 57.26 88.6535 57.382 88.6535C57.5041 88.6535 57.6029 88.7573 57.6029 88.8855V90.7664C57.6029 90.8946 57.5041 90.9985 57.382 90.9985Z" fill="white"/>
<path d="M57.3821 87.2362C57.26 87.2362 57.1612 87.1324 57.1612 87.0042V86.3114L56.5018 86.3211C56.376 86.3182 56.2795 86.2207 56.2776 86.0925C56.2758 85.9643 56.3732 85.859 56.4953 85.857L57.3784 85.8438C57.4387 85.8395 57.4944 85.8668 57.5366 85.9106C57.5788 85.954 57.6025 86.014 57.6025 86.0759V87.0037C57.6025 87.1319 57.5037 87.2357 57.3816 87.2357L57.3821 87.2362Z" fill="white"/>
<path d="M34.8573 86.6492C34.7366 86.6492 34.6382 86.5478 34.6364 86.4206C34.6345 86.2924 34.732 86.1871 34.854 86.1851L36.6574 86.1578C36.7785 86.1544 36.8796 86.2583 36.8815 86.3865C36.8834 86.5147 36.7859 86.62 36.6639 86.6219L34.8605 86.6492H34.8573ZM38.4644 86.5946C38.3438 86.5946 38.2454 86.4932 38.2435 86.366C38.2417 86.2378 38.3391 86.1325 38.4612 86.1305L40.2645 86.1032C40.3907 86.0998 40.4868 86.2037 40.4886 86.3319C40.4905 86.4601 40.393 86.5654 40.271 86.5673L38.4677 86.5946H38.4644ZM42.0715 86.54C41.9509 86.54 41.8525 86.4386 41.8507 86.3114C41.8488 86.1832 41.9463 86.0779 42.0683 86.0759L43.8716 86.0486C43.9946 86.0447 44.0939 86.149 44.0958 86.2773C44.0976 86.4055 44.0002 86.5108 43.8781 86.5127L42.0748 86.54H42.0715ZM45.6787 86.4854C45.558 86.4854 45.4596 86.384 45.4578 86.2568C45.4559 86.1286 45.5534 86.0233 45.6754 86.0213L47.4788 85.994C47.598 85.9901 47.7011 86.0944 47.7029 86.2227C47.7048 86.3509 47.6073 86.4562 47.4853 86.4581L45.6819 86.4854H45.6787ZM49.2858 86.4308C49.1652 86.4308 49.0668 86.3294 49.0649 86.2022C49.0631 86.074 49.1605 85.9687 49.2826 85.9667L51.0859 85.9394C51.2103 85.9355 51.3082 86.0398 51.3101 86.1681C51.3119 86.2963 51.2145 86.4016 51.0924 86.4035L49.2891 86.4308H49.2858ZM52.893 86.3762C52.7723 86.3762 52.6739 86.2748 52.6721 86.1476C52.6702 86.0194 52.7677 85.9141 52.8897 85.9121L54.6931 85.8848C54.8142 85.8804 54.9153 85.9852 54.9172 86.1135C54.919 86.2417 54.8216 86.347 54.6995 86.3489L52.8962 86.3762H52.893Z" fill="white"/>
<path d="M32.1704 87.618C32.0483 87.618 31.9495 87.5141 31.9495 87.3859V86.4577C31.9495 86.3309 32.0465 86.2275 32.1671 86.2256L33.0502 86.2124H33.0535C33.1741 86.2124 33.2725 86.3138 33.2744 86.4411C33.2762 86.5693 33.1788 86.6746 33.0567 86.6766L32.3912 86.6868V87.3864C32.3912 87.5146 32.2924 87.6185 32.1704 87.6185V87.618Z" fill="white"/>
<path d="M32.1704 98.6385C32.0483 98.6385 31.9495 98.5347 31.9495 98.4064V96.5694C31.9495 96.4412 32.0483 96.3374 32.1704 96.3374C32.2924 96.3374 32.3912 96.4412 32.3912 96.5694V98.4064C32.3912 98.5347 32.2924 98.6385 32.1704 98.6385ZM32.1704 94.965C32.0483 94.965 31.9495 94.8612 31.9495 94.7329V92.8959C31.9495 92.7677 32.0483 92.6639 32.1704 92.6639C32.2924 92.6639 32.3912 92.7677 32.3912 92.8959V94.7329C32.3912 94.8612 32.2924 94.965 32.1704 94.965ZM32.1704 91.2915C32.0483 91.2915 31.9495 91.1876 31.9495 91.0594V89.2224C31.9495 89.0942 32.0483 88.9904 32.1704 88.9904C32.2924 88.9904 32.3912 89.0942 32.3912 89.2224V91.0594C32.3912 91.1876 32.2924 91.2915 32.1704 91.2915Z" fill="white"/>
<path d="M32.1704 101.403C32.1119 101.403 32.0557 101.379 32.0144 101.336C31.9727 101.292 31.9495 101.233 31.9495 101.171V100.243C31.9495 100.115 32.0483 100.011 32.1704 100.011C32.2924 100.011 32.3912 100.115 32.3912 100.243V100.939L33.053 100.937H33.0535C33.175 100.937 33.2739 101.04 33.2744 101.168C33.2744 101.296 33.176 101.4 33.0539 101.4L32.1704 101.403H32.1699L32.1704 101.403Z" fill="white"/>
<path d="M34.8572 101.395C34.7357 101.395 34.6368 101.292 34.6364 101.164C34.6364 101.036 34.7347 100.932 34.8568 100.932L36.6601 100.926H36.6606C36.7822 100.926 36.881 101.03 36.8815 101.158C36.8815 101.286 36.7831 101.39 36.661 101.39L34.8577 101.395H34.8572ZM38.4644 101.385C38.3428 101.385 38.244 101.282 38.2435 101.154C38.2435 101.026 38.3419 100.922 38.4639 100.922L40.2673 100.916H40.2677C40.3893 100.916 40.4881 101.02 40.4886 101.147C40.4886 101.276 40.3902 101.379 40.2682 101.38L38.4648 101.385H38.4644ZM42.0711 101.375C41.9495 101.375 41.8506 101.272 41.8502 101.144C41.8502 101.016 41.9485 100.912 42.0706 100.911L43.8739 100.906H43.8744C43.996 100.906 44.0948 101.009 44.0953 101.137C44.0953 101.265 43.9969 101.369 43.8749 101.37L42.0715 101.375H42.0711ZM45.6782 101.365C45.5566 101.365 45.4578 101.261 45.4573 101.134C45.4573 101.005 45.5557 100.902 45.6777 100.901L47.4811 100.896H47.4815C47.6031 100.896 47.702 100.999 47.7024 101.127C47.7024 101.255 47.604 101.359 47.482 101.359L45.6787 101.365H45.6782ZM49.2849 101.355C49.1633 101.355 49.0644 101.251 49.064 101.123C49.064 100.995 49.1624 100.891 49.2844 100.891L51.0877 100.886H51.0882C51.2098 100.886 51.3086 100.989 51.3091 101.117C51.3091 101.245 51.2107 101.349 51.0887 101.349L49.2853 101.355H49.2849ZM52.892 101.344C52.7704 101.344 52.6716 101.241 52.6711 101.113C52.6711 100.985 52.7695 100.881 52.8915 100.881L54.6949 100.875H54.6953C54.8169 100.875 54.9158 100.979 54.9162 101.106C54.9162 101.235 54.8179 101.338 54.6958 101.339L52.8925 101.344H52.892Z" fill="white"/>
<path d="M46.345 109.324L72.0376 108.908C72.537 108.9 72.9421 109.343 72.9421 109.897V125.479C72.9421 126.033 72.537 126.483 72.0376 126.484L46.345 126.531C45.8665 126.532 45.4795 126.093 45.4795 125.551V110.318C45.4795 109.777 45.867 109.331 46.345 109.323V109.324Z" fill="url(#paint37_linear_104_2257)"/>
<path d="M45.8697 109.074L71.5624 108.659C72.0618 108.65 72.4669 109.093 72.4669 109.647V125.229C72.4669 125.783 72.0618 126.233 71.5624 126.234L45.8697 126.281C45.3913 126.282 45.0043 125.843 45.0043 125.302V110.069C45.0043 109.527 45.3918 109.081 45.8697 109.074V109.074Z" fill="#D8DEE8"/>
<g style="mix-blend-mode:soft-light" opacity="0.3">
<path d="M71.317 124.96V109.937L46.1056 110.319V125.033L71.317 124.96Z" fill="white"/>
</g>
<path d="M70.4338 125.195C70.3122 125.195 70.2134 125.091 70.2129 124.963C70.2129 124.835 70.3113 124.731 70.4333 124.731L71.0965 124.729V124.032C71.0965 123.904 71.1953 123.8 71.3173 123.8C71.4394 123.8 71.5382 123.904 71.5382 124.032V124.96C71.5382 125.088 71.4399 125.192 71.3178 125.192L70.4342 125.195H70.4338Z" fill="white"/>
<path d="M71.3171 122.383C71.195 122.383 71.0962 122.279 71.0962 122.151V120.27C71.0962 120.142 71.195 120.038 71.3171 120.038C71.4391 120.038 71.538 120.142 71.538 120.27V122.151C71.538 122.279 71.4391 122.383 71.3171 122.383ZM71.3171 118.621C71.195 118.621 71.0962 118.517 71.0962 118.389V116.508C71.0962 116.38 71.195 116.276 71.3171 116.276C71.4391 116.276 71.538 116.38 71.538 116.508V118.389C71.538 118.517 71.4391 118.621 71.3171 118.621ZM71.3171 114.859C71.195 114.859 71.0962 114.756 71.0962 114.627V112.747C71.0962 112.618 71.195 112.514 71.3171 112.514C71.4391 112.514 71.538 112.618 71.538 112.747V114.627C71.538 114.756 71.4391 114.859 71.3171 114.859Z" fill="white"/>
<path d="M71.3169 111.098C71.1948 111.098 71.096 110.994 71.096 110.866V110.173L70.4366 110.183C70.3122 110.183 70.2143 110.082 70.2124 109.954C70.2106 109.826 70.308 109.72 70.4301 109.718L71.3132 109.705C71.3726 109.701 71.4292 109.728 71.4714 109.772C71.5137 109.816 71.5373 109.875 71.5373 109.937V110.865C71.5373 110.993 71.4385 111.097 71.3164 111.097L71.3169 111.098Z" fill="white"/>
<path d="M48.792 110.51C48.6713 110.51 48.5729 110.409 48.5711 110.282C48.5692 110.153 48.6667 110.048 48.7887 110.046L50.5921 110.019C50.7146 110.018 50.8143 110.119 50.8162 110.248C50.818 110.376 50.7206 110.481 50.5985 110.483L48.7952 110.51H48.792ZM52.3991 110.456C52.2784 110.456 52.1801 110.354 52.1782 110.227C52.1764 110.099 52.2738 109.994 52.3959 109.992L54.1992 109.964C54.318 109.963 54.4215 110.065 54.4233 110.193C54.4252 110.321 54.3277 110.426 54.2057 110.428L52.4024 110.456H52.3991ZM56.0062 110.401C55.8856 110.401 55.7872 110.3 55.7853 110.172C55.7835 110.044 55.8809 109.939 56.003 109.937L57.8063 109.91C57.9307 109.909 58.0286 110.01 58.0305 110.138C58.0323 110.267 57.9349 110.372 57.8128 110.374L56.0095 110.401H56.0062ZM59.6134 110.346C59.4927 110.346 59.3943 110.245 59.3925 110.118C59.3906 109.99 59.4881 109.884 59.6101 109.882L61.4135 109.855C61.5341 109.854 61.6358 109.955 61.6376 110.084C61.6395 110.212 61.542 110.317 61.42 110.319L59.6166 110.346H59.6134ZM63.2205 110.292C63.0999 110.292 63.0015 110.19 62.9996 110.063C62.9978 109.935 63.0952 109.83 63.2173 109.828L65.0206 109.8C65.1464 109.799 65.2429 109.901 65.2447 110.029C65.2466 110.157 65.1492 110.263 65.0271 110.265L63.2238 110.292H63.2205ZM66.8277 110.237C66.707 110.237 66.6086 110.136 66.6068 110.009C66.6049 109.88 66.7024 109.775 66.8244 109.773L68.6277 109.746C68.7503 109.744 68.85 109.846 68.8519 109.974C68.8537 110.103 68.7563 110.208 68.6342 110.21L66.8309 110.237H66.8277Z" fill="white"/>
<path d="M46.1052 111.479C45.9831 111.479 45.8843 111.375 45.8843 111.247V110.319C45.8843 110.192 45.9813 110.089 46.1019 110.087L46.985 110.073C47.1108 110.072 47.2073 110.174 47.2092 110.302C47.211 110.43 47.1136 110.536 46.9915 110.537L46.3261 110.547V111.246C46.3261 111.375 46.2272 111.478 46.1052 111.478V111.479Z" fill="white"/>
<path d="M46.1052 122.499C45.9831 122.499 45.8843 122.396 45.8843 122.267V120.43C45.8843 120.302 45.9831 120.198 46.1052 120.198C46.2272 120.198 46.3261 120.302 46.3261 120.43V122.267C46.3261 122.396 46.2272 122.499 46.1052 122.499ZM46.1052 118.826C45.9831 118.826 45.8843 118.722 45.8843 118.594V116.757C45.8843 116.629 45.9831 116.525 46.1052 116.525C46.2272 116.525 46.3261 116.629 46.3261 116.757V118.594C46.3261 118.722 46.2272 118.826 46.1052 118.826ZM46.1052 115.152C45.9831 115.152 45.8843 115.049 45.8843 114.92V113.083C45.8843 112.955 45.9831 112.851 46.1052 112.851C46.2272 112.851 46.3261 112.955 46.3261 113.083V114.92C46.3261 115.049 46.2272 115.152 46.1052 115.152Z" fill="white"/>
<path d="M46.1052 125.265C46.0467 125.265 45.9905 125.24 45.9492 125.197C45.9075 125.154 45.8843 125.095 45.8843 125.033V124.105C45.8843 123.977 45.9831 123.873 46.1052 123.873C46.2272 123.873 46.3261 123.977 46.3261 124.105V124.8L46.9878 124.798H46.9883C47.1099 124.798 47.2087 124.902 47.2092 125.029C47.2092 125.157 47.1108 125.261 46.9887 125.262L46.1052 125.264H46.1047L46.1052 125.265Z" fill="white"/>
<path d="M48.7919 125.257C48.6704 125.257 48.5715 125.154 48.571 125.026C48.571 124.898 48.6694 124.794 48.7915 124.793L50.5948 124.788H50.5953C50.7169 124.788 50.8157 124.891 50.8162 125.019C50.8162 125.147 50.7178 125.251 50.5957 125.252L48.7924 125.257H48.7919ZM52.3991 125.247C52.2775 125.247 52.1786 125.143 52.1782 125.016C52.1782 124.887 52.2766 124.784 52.3986 124.783L54.2019 124.778H54.2024C54.324 124.778 54.4228 124.881 54.4233 125.009C54.4233 125.137 54.3249 125.241 54.2029 125.241L52.3995 125.247H52.3991ZM56.0057 125.237C55.8842 125.237 55.7853 125.133 55.7849 125.005C55.7849 124.877 55.8832 124.773 56.0053 124.773L57.8086 124.767H57.8091C57.9307 124.767 58.0295 124.871 58.03 124.999C58.03 125.127 57.9316 125.231 57.8096 125.231L56.0062 125.237H56.0057ZM59.6129 125.226C59.4913 125.226 59.3925 125.123 59.392 124.995C59.392 124.867 59.4904 124.763 59.6124 124.763L61.4158 124.757H61.4162C61.5378 124.757 61.6367 124.861 61.6371 124.988C61.6371 125.117 61.5387 125.22 61.4167 125.221L59.6134 125.226H59.6129ZM63.2196 125.216C63.098 125.216 62.9991 125.113 62.9987 124.985C62.9987 124.857 63.097 124.753 63.2191 124.752L65.0224 124.747H65.0229C65.1445 124.747 65.2433 124.85 65.2438 124.978C65.2438 125.106 65.1454 125.21 65.0234 125.211L63.22 125.216H63.2196ZM66.8267 125.206C66.7051 125.206 66.6063 125.102 66.6058 124.975C66.6058 124.846 66.7042 124.743 66.8262 124.742L68.6296 124.737H68.63C68.7516 124.737 68.8505 124.84 68.8509 124.968C68.8509 125.096 68.7525 125.2 68.6305 125.2L66.8272 125.206H66.8267Z" fill="white"/>
<defs>
<linearGradient id="paint0_linear_104_2257" x1="105.833" y1="111.959" x2="85.4836" y2="111.959" gradientUnits="userSpaceOnUse">
<stop stop-color="#444B8C"/>
<stop offset="1" stop-color="#3E4177"/>
</linearGradient>
<linearGradient id="paint1_linear_104_2257" x1="97.1471" y1="62.7872" x2="87.6394" y2="62.7872" gradientUnits="userSpaceOnUse">
<stop stop-color="#444B8C"/>
<stop offset="1" stop-color="#3E4177"/>
</linearGradient>
<linearGradient id="paint2_linear_104_2257" x1="83.0017" y1="46.7105" x2="76.4148" y2="46.7105" gradientUnits="userSpaceOnUse">
<stop stop-color="#444B8C"/>
<stop offset="1" stop-color="#3E4177"/>
</linearGradient>
<linearGradient id="paint3_linear_104_2257" x1="79.8094" y1="67.5362" x2="70.0066" y2="67.5362" gradientUnits="userSpaceOnUse">
<stop stop-color="#444B8C"/>
<stop offset="1" stop-color="#3E4177"/>
</linearGradient>
<linearGradient id="paint4_linear_104_2257" x1="72.2092" y1="94.1786" x2="57.5532" y2="94.1786" gradientUnits="userSpaceOnUse">
<stop stop-color="#444B8C"/>
<stop offset="1" stop-color="#3E4177"/>
</linearGradient>
<linearGradient id="paint5_linear_104_2257" x1="69.4626" y1="114.794" x2="69.4626" y2="100.903" gradientUnits="userSpaceOnUse">
<stop stop-color="#444B8C"/>
<stop offset="1" stop-color="#3E4177"/>
</linearGradient>
<linearGradient id="paint6_linear_104_2257" x1="91.1784" y1="73.0458" x2="72.7135" y2="122.356" gradientUnits="userSpaceOnUse">
<stop stop-color="#444B8C"/>
<stop offset="1" stop-color="#3E4177"/>
</linearGradient>
<linearGradient id="paint7_linear_104_2257" x1="84.5177" y1="29.7037" x2="52.2154" y2="51.4017" gradientUnits="userSpaceOnUse">
<stop stop-color="#444B8C"/>
<stop offset="1" stop-color="#3E4177"/>
</linearGradient>
<linearGradient id="paint8_linear_104_2257" x1="88.4074" y1="48.648" x2="71.7495" y2="59.8373" gradientUnits="userSpaceOnUse">
<stop stop-color="#444B8C"/>
<stop offset="1" stop-color="#3E4177"/>
</linearGradient>
<linearGradient id="paint9_linear_104_2257" x1="116.416" y1="104.651" x2="123.869" y2="145.377" gradientUnits="userSpaceOnUse">
<stop stop-color="#444B8C"/>
<stop offset="1" stop-color="#3E4177"/>
</linearGradient>
<linearGradient id="paint10_linear_104_2257" x1="89.4569" y1="76.9675" x2="80.6526" y2="100.075" gradientUnits="userSpaceOnUse">
<stop stop-color="#FFC444"/>
<stop offset="1" stop-color="#F36F56"/>
</linearGradient>
<linearGradient id="paint11_linear_104_2257" x1="84.0564" y1="29.4614" x2="51.7541" y2="51.1593" gradientUnits="userSpaceOnUse">
<stop stop-color="#FF9085"/>
<stop offset="1" stop-color="#FB6FBB"/>
</linearGradient>
<linearGradient id="paint12_linear_104_2257" x1="115.955" y1="105.126" x2="123.408" y2="145.852" gradientUnits="userSpaceOnUse">
<stop stop-color="#E38DDD"/>
<stop offset="1" stop-color="#9571F6"/>
</linearGradient>
<linearGradient id="paint13_linear_104_2257" x1="66.0355" y1="56.3134" x2="38.0481" y2="93.6531" gradientUnits="userSpaceOnUse">
<stop stop-color="#444B8C"/>
<stop offset="1" stop-color="#3E4177"/>
</linearGradient>
<linearGradient id="paint14_linear_104_2257" x1="65.5864" y1="56.0774" x2="37.5995" y2="93.4171" gradientUnits="userSpaceOnUse">
<stop stop-color="#AA80F9"/>
<stop offset="1" stop-color="#6165D7"/>
</linearGradient>
<linearGradient id="paint15_linear_104_2257" x1="94.7714" y1="25.8109" x2="101.416" y2="39.5683" gradientUnits="userSpaceOnUse">
<stop stop-color="#311944"/>
<stop offset="1" stop-color="#6B3976"/>
</linearGradient>
<linearGradient id="paint16_linear_104_2257" x1="29.2278" y1="49.3495" x2="100.948" y2="49.3495" gradientUnits="userSpaceOnUse">
<stop stop-color="#444B8C"/>
<stop offset="1" stop-color="#3E4177"/>
</linearGradient>
<linearGradient id="paint17_linear_104_2257" x1="19.1758" y1="129.418" x2="88.3867" y2="52.5354" gradientUnits="userSpaceOnUse">
<stop stop-color="#FF9085"/>
<stop offset="1" stop-color="#FB6FBB"/>
</linearGradient>
<linearGradient id="paint18_linear_104_2257" x1="3.59778" y1="115.187" x2="72.8272" y2="38.2833" gradientUnits="userSpaceOnUse">
<stop stop-color="#FF9085"/>
<stop offset="1" stop-color="#FB6FBB"/>
</linearGradient>
<linearGradient id="paint19_linear_104_2257" x1="114.416" y1="99.7766" x2="112.828" y2="99.5193" gradientUnits="userSpaceOnUse">
<stop stop-color="#F36F56"/>
<stop offset="1" stop-color="#FFC444"/>
</linearGradient>
<linearGradient id="paint20_linear_104_2257" x1="112.466" y1="92.3703" x2="114.31" y2="108.409" gradientUnits="userSpaceOnUse">
<stop stop-color="#444B8C"/>
<stop offset="1" stop-color="#26264F"/>
</linearGradient>
<linearGradient id="paint21_linear_104_2257" x1="109.351" y1="85.2003" x2="123.517" y2="96.2766" gradientUnits="userSpaceOnUse">
<stop stop-color="#AB316D"/>
<stop offset="1" stop-color="#792D3D"/>
</linearGradient>
<linearGradient id="paint22_linear_104_2257" x1="125.527" y1="90.5304" x2="130.906" y2="103.671" gradientUnits="userSpaceOnUse">
<stop stop-color="#444B8C"/>
<stop offset="1" stop-color="#26264F"/>
</linearGradient>
<linearGradient id="paint23_linear_104_2257" x1="132.663" y1="105.698" x2="130.774" y2="105.867" gradientUnits="userSpaceOnUse">
<stop stop-color="#F36F56"/>
<stop offset="1" stop-color="#FFC444"/>
</linearGradient>
<linearGradient id="paint24_linear_104_2257" x1="103.096" y1="95.255" x2="120.098" y2="89.7912" gradientUnits="userSpaceOnUse">
<stop stop-color="#AB316D"/>
<stop offset="1" stop-color="#792D3D"/>
</linearGradient>
<linearGradient id="paint25_linear_104_2257" x1="120.555" y1="85.1616" x2="131.067" y2="105.221" gradientUnits="userSpaceOnUse">
<stop stop-color="#AB316D"/>
<stop offset="1" stop-color="#792D3D"/>
</linearGradient>
<linearGradient id="paint26_linear_104_2257" x1="121.772" y1="85.0764" x2="132.064" y2="104.719" gradientUnits="userSpaceOnUse">
<stop stop-color="#AB316D"/>
<stop offset="1" stop-color="#792D3D"/>
</linearGradient>
<linearGradient id="paint27_linear_104_2257" x1="114.529" y1="63.8759" x2="114.126" y2="47.3848" gradientUnits="userSpaceOnUse">
<stop stop-color="#F36F56"/>
<stop offset="1" stop-color="#FFC444"/>
</linearGradient>
<linearGradient id="paint28_linear_104_2257" x1="112.724" y1="52.9207" x2="112.981" y2="56.4794" gradientUnits="userSpaceOnUse">
<stop stop-color="#F36F56"/>
<stop offset="1" stop-color="#FFC444"/>
</linearGradient>
<linearGradient id="paint29_linear_104_2257" x1="119.4" y1="59.168" x2="119.27" y2="54.9649" gradientUnits="userSpaceOnUse">
<stop stop-color="#444B8C"/>
<stop offset="1" stop-color="#26264F"/>
</linearGradient>
<linearGradient id="paint30_linear_104_2257" x1="118.748" y1="55.273" x2="117.54" y2="72.524" gradientUnits="userSpaceOnUse">
<stop stop-color="#F36F56"/>
<stop offset="1" stop-color="#FFC444"/>
</linearGradient>
<linearGradient id="paint31_linear_104_2257" x1="121.594" y1="57.1932" x2="117.609" y2="59.5202" gradientUnits="userSpaceOnUse">
<stop stop-color="#F36F56"/>
<stop offset="1" stop-color="#FFC444"/>
</linearGradient>
<linearGradient id="paint32_linear_104_2257" x1="103.276" y1="56.2417" x2="103.994" y2="58.4242" gradientUnits="userSpaceOnUse">
<stop stop-color="#F36F56"/>
<stop offset="1" stop-color="#FFC444"/>
</linearGradient>
<linearGradient id="paint33_linear_104_2257" x1="126.953" y1="86.8896" x2="105.502" y2="57.0663" gradientUnits="userSpaceOnUse">
<stop stop-color="#F36F56"/>
<stop offset="1" stop-color="#FFC444"/>
</linearGradient>
<linearGradient id="paint34_linear_104_2257" x1="109.735" y1="63.2987" x2="114.208" y2="85.4701" gradientUnits="userSpaceOnUse">
<stop stop-color="#F36F56"/>
<stop offset="1" stop-color="#FFC444"/>
</linearGradient>
<linearGradient id="paint35_linear_104_2257" x1="109.764" y1="47.7044" x2="90.0133" y2="48.5349" gradientUnits="userSpaceOnUse">
<stop stop-color="#444B8C"/>
<stop offset="1" stop-color="#3E4177"/>
</linearGradient>
<linearGradient id="paint36_linear_104_2257" x1="54.712" y1="80.1422" x2="25.1059" y2="119.642" gradientUnits="userSpaceOnUse">
<stop stop-color="#444B8C"/>
<stop offset="1" stop-color="#3E4177"/>
</linearGradient>
<linearGradient id="paint37_linear_104_2257" x1="68.6468" y1="104.004" x2="39.0406" y2="143.503" gradientUnits="userSpaceOnUse">
<stop stop-color="#444B8C"/>
<stop offset="1" stop-color="#3E4177"/>
</linearGradient>
</defs>
</svg>
