<svg width="141" height="136" viewBox="0 0 141 136" fill="none" xmlns="http://www.w3.org/2000/svg">
<path d="M4.71875 131.156C3.93229 131.156 3.26823 131.023 2.72656 130.758C2.1901 130.492 1.78385 130.12 1.50781 129.641C1.23698 129.156 1.10156 128.591 1.10156 127.945C1.10156 127.779 1.10938 127.591 1.125 127.383C1.14583 127.169 1.17708 126.971 1.21875 126.789L2.75 119.578H5.13281L3.61719 126.758C3.58073 126.94 3.54948 127.115 3.52344 127.281C3.4974 127.448 3.48438 127.599 3.48438 127.734C3.48438 128.182 3.60677 128.526 3.85156 128.766C4.09635 129.005 4.46615 129.125 4.96094 129.125C5.42448 129.125 5.80729 129.036 6.10938 128.859C6.41667 128.682 6.66406 128.417 6.85156 128.062C7.03906 127.708 7.1875 127.268 7.29688 126.742L8.8125 119.578H11.2031L9.63281 126.969C9.46094 127.776 9.17969 128.497 8.78906 129.133C8.40365 129.763 7.88021 130.258 7.21875 130.617C6.55729 130.977 5.72396 131.156 4.71875 131.156ZM11.3516 131L13.2031 122.266H15L14.8359 123.883H14.9062C15.1302 123.534 15.3776 123.227 15.6484 122.961C15.9193 122.695 16.2188 122.487 16.5469 122.336C16.8802 122.18 17.25 122.102 17.6562 122.102C18.1562 122.102 18.5729 122.206 18.9062 122.414C19.2448 122.617 19.4974 122.906 19.6641 123.281C19.8307 123.656 19.9141 124.102 19.9141 124.617C19.9141 124.81 19.8984 125.026 19.8672 125.266C19.8359 125.505 19.7917 125.758 19.7344 126.023L18.6953 131H16.3438L17.4141 125.898C17.4557 125.721 17.487 125.555 17.5078 125.398C17.5286 125.242 17.5391 125.099 17.5391 124.969C17.5391 124.641 17.4688 124.398 17.3281 124.242C17.1875 124.086 16.9766 124.008 16.6953 124.008C16.3411 124.008 16.0208 124.161 15.7344 124.469C15.4479 124.771 15.1979 125.177 14.9844 125.688C14.776 126.198 14.6042 126.763 14.4688 127.383L13.7031 131H11.3516ZM21.0234 131L23.6016 118.844H25.9531L24.7969 124.266C24.7604 124.438 24.7109 124.635 24.6484 124.859C24.5859 125.083 24.5234 125.297 24.4609 125.5C24.3984 125.698 24.3516 125.857 24.3203 125.977H24.3828L27.9219 122.266H30.6094L26.7188 126.203L28.9453 131H26.3203L24.8906 127.719L23.9531 128.281L23.375 131H21.0234ZM30.1172 131L31.9688 122.266H33.7656L33.6016 123.883H33.6719C33.8958 123.534 34.1432 123.227 34.4141 122.961C34.6849 122.695 34.9844 122.487 35.3125 122.336C35.6458 122.18 36.0156 122.102 36.4219 122.102C36.9219 122.102 37.3385 122.206 37.6719 122.414C38.0104 122.617 38.263 122.906 38.4297 123.281C38.5964 123.656 38.6797 124.102 38.6797 124.617C38.6797 124.81 38.6641 125.026 38.6328 125.266C38.6016 125.505 38.5573 125.758 38.5 126.023L37.4609 131H35.1094L36.1797 125.898C36.2214 125.721 36.2526 125.555 36.2734 125.398C36.2943 125.242 36.3047 125.099 36.3047 124.969C36.3047 124.641 36.2344 124.398 36.0938 124.242C35.9531 124.086 35.7422 124.008 35.4609 124.008C35.1068 124.008 34.7865 124.161 34.5 124.469C34.2135 124.771 33.9635 125.177 33.75 125.688C33.5417 126.198 33.3698 126.763 33.2344 127.383L32.4688 131H30.1172ZM43.5469 131.156C42.8906 131.156 42.3099 131.021 41.8047 130.75C41.3047 130.479 40.9115 130.094 40.625 129.594C40.3438 129.089 40.2031 128.49 40.2031 127.797C40.2031 127.177 40.263 126.586 40.3828 126.023C40.5078 125.456 40.6927 124.935 40.9375 124.461C41.1875 123.982 41.4974 123.568 41.8672 123.219C42.2422 122.865 42.6771 122.591 43.1719 122.398C43.6667 122.201 44.224 122.102 44.8438 122.102C45.5208 122.102 46.1068 122.24 46.6016 122.516C47.0964 122.786 47.4792 123.18 47.75 123.695C48.0208 124.211 48.1562 124.833 48.1562 125.562C48.1562 126.156 48.0964 126.729 47.9766 127.281C47.862 127.828 47.6849 128.339 47.4453 128.812C47.2057 129.281 46.9036 129.693 46.5391 130.047C46.1745 130.396 45.7422 130.669 45.2422 130.867C44.7474 131.06 44.1823 131.156 43.5469 131.156ZM43.7422 129.242C44.0026 129.242 44.2396 129.177 44.4531 129.047C44.6667 128.911 44.8568 128.727 45.0234 128.492C45.1901 128.253 45.3281 127.979 45.4375 127.672C45.5521 127.359 45.638 127.023 45.6953 126.664C45.7578 126.305 45.7891 125.938 45.7891 125.562C45.7891 125.266 45.7526 125.003 45.6797 124.773C45.612 124.539 45.4948 124.357 45.3281 124.227C45.1667 124.091 44.9479 124.023 44.6719 124.023C44.3854 124.023 44.1276 124.104 43.8984 124.266C43.6745 124.422 43.4792 124.633 43.3125 124.898C43.1458 125.164 43.0078 125.461 42.8984 125.789C42.7891 126.117 42.7057 126.456 42.6484 126.805C42.5964 127.148 42.5703 127.479 42.5703 127.797C42.5703 128.271 42.6667 128.63 42.8594 128.875C43.0521 129.12 43.3464 129.242 43.7422 129.242ZM50.2344 131L49.8359 122.266H52.0312L52.0625 126.133C52.0625 126.56 52.0573 126.984 52.0469 127.406C52.0417 127.828 52.0182 128.284 51.9766 128.773H52.0469C52.1198 128.508 52.2135 128.214 52.3281 127.891C52.4427 127.562 52.5521 127.266 52.6562 127C52.7604 126.729 52.8333 126.547 52.875 126.453L54.6797 122.266H57.2422V126.453C57.2422 126.818 57.2396 127.188 57.2344 127.562C57.2292 127.938 57.2057 128.341 57.1641 128.773H57.2422C57.3203 128.534 57.4141 128.247 57.5234 127.914C57.6328 127.581 57.7448 127.253 57.8594 126.93C57.9792 126.607 58.0833 126.341 58.1719 126.133L59.8828 122.266H62.2812L58.1406 131H55.5625L55.5156 126.938C55.5156 126.719 55.5182 126.451 55.5234 126.133C55.5286 125.815 55.5365 125.492 55.5469 125.164C55.5625 124.831 55.5781 124.536 55.5938 124.281H55.5C55.4115 124.536 55.3125 124.82 55.2031 125.133C55.0938 125.445 54.9844 125.747 54.875 126.039C54.7708 126.331 54.6745 126.576 54.5859 126.773L52.7656 131H50.2344ZM61.7578 131L63.6094 122.266H65.4062L65.2422 123.883H65.3125C65.5365 123.534 65.7839 123.227 66.0547 122.961C66.3255 122.695 66.625 122.487 66.9531 122.336C67.2865 122.18 67.6562 122.102 68.0625 122.102C68.5625 122.102 68.9792 122.206 69.3125 122.414C69.651 122.617 69.9036 122.906 70.0703 123.281C70.237 123.656 70.3203 124.102 70.3203 124.617C70.3203 124.81 70.3047 125.026 70.2734 125.266C70.2422 125.505 70.1979 125.758 70.1406 126.023L69.1016 131H66.75L67.8203 125.898C67.862 125.721 67.8932 125.555 67.9141 125.398C67.9349 125.242 67.9453 125.099 67.9453 124.969C67.9453 124.641 67.875 124.398 67.7344 124.242C67.5938 124.086 67.3828 124.008 67.1016 124.008C66.7474 124.008 66.4271 124.161 66.1406 124.469C65.8542 124.771 65.6042 125.177 65.3906 125.688C65.1823 126.198 65.0104 126.763 64.875 127.383L64.1094 131H61.7578ZM75.7109 131L78.125 119.578H84.5156L84.0938 121.562H80.0938L79.5703 124.07H83.2969L82.8672 126.055H79.1406L78.5156 129H82.5156L82.0938 131H75.7109ZM84.2578 131L86.1094 122.266H87.9062L87.7422 123.883H87.8281C88.0625 123.513 88.3177 123.195 88.5938 122.93C88.8698 122.664 89.1693 122.461 89.4922 122.32C89.8151 122.174 90.1667 122.102 90.5469 122.102C90.6719 122.102 90.8047 122.109 90.9453 122.125C91.0911 122.141 91.2083 122.161 91.2969 122.188L90.7812 124.453C90.6979 124.422 90.5859 124.393 90.4453 124.367C90.3099 124.341 90.1615 124.328 90 124.328C89.7083 124.328 89.4297 124.388 89.1641 124.508C88.8984 124.622 88.6536 124.794 88.4297 125.023C88.2057 125.253 88.0078 125.542 87.8359 125.891C87.6693 126.234 87.5365 126.635 87.4375 127.094L86.6094 131H84.2578ZM90.9922 131L92.8438 122.266H94.6406L94.4766 123.883H94.5625C94.7969 123.513 95.0521 123.195 95.3281 122.93C95.6042 122.664 95.9036 122.461 96.2266 122.32C96.5495 122.174 96.901 122.102 97.2812 122.102C97.4062 122.102 97.5391 122.109 97.6797 122.125C97.8255 122.141 97.9427 122.161 98.0312 122.188L97.5156 124.453C97.4323 124.422 97.3203 124.393 97.1797 124.367C97.0443 124.341 96.8958 124.328 96.7344 124.328C96.4427 124.328 96.1641 124.388 95.8984 124.508C95.6328 124.622 95.388 124.794 95.1641 125.023C94.9401 125.253 94.7422 125.542 94.5703 125.891C94.4036 126.234 94.2708 126.635 94.1719 127.094L93.3438 131H90.9922ZM101.484 131.156C100.828 131.156 100.247 131.021 99.7422 130.75C99.2422 130.479 98.849 130.094 98.5625 129.594C98.2812 129.089 98.1406 128.49 98.1406 127.797C98.1406 127.177 98.2005 126.586 98.3203 126.023C98.4453 125.456 98.6302 124.935 98.875 124.461C99.125 123.982 99.4349 123.568 99.8047 123.219C100.18 122.865 100.615 122.591 101.109 122.398C101.604 122.201 102.161 122.102 102.781 122.102C103.458 122.102 104.044 122.24 104.539 122.516C105.034 122.786 105.417 123.18 105.688 123.695C105.958 124.211 106.094 124.833 106.094 125.562C106.094 126.156 106.034 126.729 105.914 127.281C105.799 127.828 105.622 128.339 105.383 128.812C105.143 129.281 104.841 129.693 104.477 130.047C104.112 130.396 103.68 130.669 103.18 130.867C102.685 131.06 102.12 131.156 101.484 131.156ZM101.68 129.242C101.94 129.242 102.177 129.177 102.391 129.047C102.604 128.911 102.794 128.727 102.961 128.492C103.128 128.253 103.266 127.979 103.375 127.672C103.49 127.359 103.576 127.023 103.633 126.664C103.695 126.305 103.727 125.938 103.727 125.562C103.727 125.266 103.69 125.003 103.617 124.773C103.549 124.539 103.432 124.357 103.266 124.227C103.104 124.091 102.885 124.023 102.609 124.023C102.323 124.023 102.065 124.104 101.836 124.266C101.612 124.422 101.417 124.633 101.25 124.898C101.083 125.164 100.945 125.461 100.836 125.789C100.727 126.117 100.643 126.456 100.586 126.805C100.534 127.148 100.508 127.479 100.508 127.797C100.508 128.271 100.604 128.63 100.797 128.875C100.99 129.12 101.284 129.242 101.68 129.242ZM107.086 131L108.938 122.266H110.734L110.57 123.883H110.656C110.891 123.513 111.146 123.195 111.422 122.93C111.698 122.664 111.997 122.461 112.32 122.32C112.643 122.174 112.995 122.102 113.375 122.102C113.5 122.102 113.633 122.109 113.773 122.125C113.919 122.141 114.036 122.161 114.125 122.188L113.609 124.453C113.526 124.422 113.414 124.393 113.273 124.367C113.138 124.341 112.99 124.328 112.828 124.328C112.536 124.328 112.258 124.388 111.992 124.508C111.727 124.622 111.482 124.794 111.258 125.023C111.034 125.253 110.836 125.542 110.664 125.891C110.497 126.234 110.365 126.635 110.266 127.094L109.438 131H107.086ZM120.789 131.156C120.216 131.156 119.69 131.094 119.211 130.969C118.737 130.844 118.336 130.672 118.008 130.453V128.312C118.482 128.578 118.945 128.786 119.398 128.938C119.857 129.083 120.326 129.156 120.805 129.156C121.07 129.156 121.315 129.133 121.539 129.086C121.768 129.034 121.966 128.956 122.133 128.852C122.299 128.747 122.43 128.617 122.523 128.461C122.617 128.305 122.664 128.122 122.664 127.914C122.664 127.617 122.604 127.37 122.484 127.172C122.37 126.969 122.208 126.781 122 126.609C121.797 126.438 121.56 126.253 121.289 126.055C120.971 125.826 120.661 125.565 120.359 125.273C120.062 124.982 119.818 124.643 119.625 124.258C119.432 123.867 119.336 123.411 119.336 122.891C119.336 122.38 119.427 121.914 119.609 121.492C119.797 121.07 120.062 120.703 120.406 120.391C120.75 120.078 121.161 119.839 121.641 119.672C122.125 119.5 122.664 119.414 123.258 119.414C123.846 119.414 124.391 119.479 124.891 119.609C125.396 119.734 125.885 119.927 126.359 120.188L125.508 122.008C125.102 121.815 124.714 121.672 124.344 121.578C123.979 121.479 123.617 121.43 123.258 121.43C123.044 121.43 122.846 121.461 122.664 121.523C122.487 121.581 122.331 121.667 122.195 121.781C122.065 121.891 121.964 122.023 121.891 122.18C121.818 122.336 121.781 122.513 121.781 122.711C121.781 122.982 121.836 123.214 121.945 123.406C122.06 123.599 122.221 123.779 122.43 123.945C122.643 124.107 122.898 124.286 123.195 124.484C123.617 124.76 123.966 125.057 124.242 125.375C124.523 125.688 124.732 126.029 124.867 126.398C125.008 126.768 125.078 127.177 125.078 127.625C125.078 128.224 124.966 128.745 124.742 129.188C124.518 129.63 124.208 129.997 123.812 130.289C123.422 130.581 122.966 130.799 122.445 130.945C121.93 131.086 121.378 131.156 120.789 131.156ZM126.461 131L128.312 122.266H130.664L128.812 131H126.461ZM129.867 121.18C129.534 121.18 129.253 121.107 129.023 120.961C128.799 120.815 128.688 120.568 128.688 120.219C128.688 119.917 128.742 119.664 128.852 119.461C128.966 119.258 129.13 119.104 129.344 119C129.557 118.896 129.812 118.844 130.109 118.844C130.422 118.844 130.693 118.911 130.922 119.047C131.156 119.182 131.273 119.427 131.273 119.781C131.273 120.198 131.159 120.536 130.93 120.797C130.701 121.052 130.346 121.18 129.867 121.18ZM133.469 134.844C132.385 134.844 131.539 134.646 130.93 134.25C130.326 133.859 130.023 133.32 130.023 132.633C130.023 132.102 130.203 131.643 130.562 131.258C130.917 130.878 131.474 130.562 132.234 130.312C132.042 130.193 131.896 130.047 131.797 129.875C131.703 129.698 131.656 129.497 131.656 129.273C131.656 128.904 131.771 128.586 132 128.32C132.234 128.049 132.617 127.792 133.148 127.547C132.81 127.292 132.56 127 132.398 126.672C132.237 126.344 132.156 125.945 132.156 125.477C132.156 124.977 132.234 124.523 132.391 124.117C132.552 123.706 132.781 123.357 133.078 123.07C133.396 122.758 133.784 122.518 134.242 122.352C134.701 122.185 135.221 122.102 135.805 122.102C136.018 122.102 136.234 122.117 136.453 122.148C136.672 122.18 136.888 122.224 137.102 122.281H140.188L139.914 123.578L138.555 123.898C138.596 124.034 138.628 124.18 138.648 124.336C138.669 124.487 138.68 124.648 138.68 124.82C138.68 125.31 138.602 125.755 138.445 126.156C138.294 126.552 138.076 126.893 137.789 127.18C137.487 127.482 137.112 127.714 136.664 127.875C136.221 128.036 135.721 128.117 135.164 128.117C135.013 128.117 134.872 128.112 134.742 128.102C134.612 128.086 134.495 128.065 134.391 128.039C134.172 128.107 134.008 128.193 133.898 128.297C133.789 128.396 133.734 128.513 133.734 128.648C133.734 128.768 133.773 128.867 133.852 128.945C133.924 129.013 134.029 129.068 134.164 129.109C134.299 129.151 134.466 129.185 134.664 129.211L135.734 129.352C136.302 129.424 136.763 129.547 137.117 129.719C137.477 129.885 137.742 130.112 137.914 130.398C138.086 130.68 138.172 131.029 138.172 131.445C138.172 132.013 138.062 132.51 137.844 132.938C137.625 133.37 137.302 133.732 136.875 134.023C136.479 134.294 135.995 134.497 135.422 134.633C134.849 134.773 134.198 134.844 133.469 134.844ZM133.609 133.242C134.042 133.242 134.417 133.206 134.734 133.133C135.057 133.06 135.315 132.953 135.508 132.812C135.669 132.698 135.789 132.565 135.867 132.414C135.951 132.263 135.992 132.091 135.992 131.898C135.992 131.815 135.979 131.742 135.953 131.68C135.932 131.622 135.898 131.57 135.852 131.523C135.753 131.419 135.617 131.341 135.445 131.289C135.279 131.242 135.076 131.203 134.836 131.172L133.773 131.047C133.409 131.094 133.102 131.174 132.852 131.289C132.602 131.409 132.411 131.557 132.281 131.734C132.156 131.911 132.094 132.115 132.094 132.344C132.094 132.646 132.219 132.87 132.469 133.016C132.724 133.167 133.104 133.242 133.609 133.242ZM135.18 126.617C135.44 126.617 135.669 126.526 135.867 126.344C136.065 126.161 136.219 125.911 136.328 125.594C136.438 125.276 136.492 124.914 136.492 124.508C136.492 124.341 136.471 124.198 136.43 124.078C136.393 123.958 136.339 123.862 136.266 123.789C136.203 123.721 136.125 123.672 136.031 123.641C135.943 123.609 135.839 123.594 135.719 123.594C135.516 123.594 135.331 123.648 135.164 123.758C135.003 123.862 134.862 124.01 134.742 124.203C134.628 124.391 134.536 124.612 134.469 124.867C134.406 125.117 134.375 125.391 134.375 125.688C134.375 125.781 134.38 125.867 134.391 125.945C134.406 126.023 134.424 126.096 134.445 126.164C134.56 126.466 134.805 126.617 135.18 126.617Z" fill="#BABABA"/>
<g clip-path="url(#clip0_104_2345)">
<path d="M106.507 0H20.7903V40.1435H106.507V0Z" fill="#E6E6E6"/>
<path d="M107.8 0H21.3954V40.1435H107.8V0Z" fill="#F0F0F0"/>
<path d="M106.507 40.1435H20.7903V42.1901H106.507V40.1435Z" fill="#E6E6E6"/>
<path d="M109.95 40.1435H23.5458V42.1901H109.95V40.1435Z" fill="#F0F0F0"/>
<path d="M105.99 38.3351V1.81134L23.2021 1.81134V38.3351L105.99 38.3351Z" fill="#FAFAFA"/>
<path d="M32.0854 38.3351L37.1176 1.80841H44.9699L39.9377 38.3351H32.0854Z" fill="white"/>
<path d="M24.0393 36.5326C23.9688 36.5326 23.91 36.4738 23.91 36.4032V2.98754C23.91 2.91696 23.9688 2.85815 24.0393 2.85815C24.1098 2.85815 24.1685 2.91696 24.1685 2.98754V36.4032C24.1685 36.4738 24.1098 36.5326 24.0393 36.5326Z" fill="#F0F0F0"/>
<path d="M41.624 38.3351L46.6562 1.80841H49.7172L44.685 38.3351H41.624Z" fill="white"/>
<path d="M105.99 38.3322V1.80841H105.761V38.3322H105.99Z" fill="#E6E6E6"/>
<path opacity="0.6" d="M108.226 4.53715H22.5087L22.3442 2.5141H108.058L108.226 4.53715Z" fill="#EBEBEB"/>
<path opacity="0.6" d="M108.226 7.85992H22.5087L22.3442 5.83392H108.058L108.226 7.85992Z" fill="#EBEBEB"/>
<path opacity="0.6" d="M108.226 11.1797H22.5087L22.3442 9.15668H108.058L108.226 11.1797Z" fill="#EBEBEB"/>
<path opacity="0.6" d="M108.226 14.5025H22.5087L22.3442 12.4765H108.058L108.226 14.5025Z" fill="#EBEBEB"/>
<path opacity="0.6" d="M108.226 17.8223H22.5087L22.3442 15.7992H108.058L108.226 17.8223Z" fill="#EBEBEB"/>
<path opacity="0.6" d="M108.226 21.145H22.5087L22.3442 19.119H108.058L108.226 21.145Z" fill="#EBEBEB"/>
<path d="M120 50.2352H106.919V90.0494H120V50.2352Z" fill="#E6E6E6"/>
<path d="M116.507 90.0494H120V84.5536H112.844L116.507 90.0494Z" fill="#FAFAFA"/>
<path d="M84.3313 50.2352H71.25V90.0494H84.3313V50.2352Z" fill="#E6E6E6"/>
<path d="M120 50.2352H81.2849V88.1587H120V50.2352Z" fill="#FAFAFA"/>
<path d="M84.7778 90.0494H81.2849V84.5536H88.438L84.7778 90.0494Z" fill="#FAFAFA"/>
<path d="M117.289 64.3643H83.9934V73.8532H117.289V64.3643Z" fill="#F0F0F0"/>
<path d="M117.289 75.8851H83.9934V85.374H117.289V75.8851Z" fill="#F0F0F0"/>
<path d="M89.2253 63.5439H112.057V64.0055C112.057 64.7642 111.443 65.3787 110.685 65.3787H90.6002C89.8423 65.3787 89.2283 64.7642 89.2283 64.0055V63.5439H89.2253Z" fill="#FAFAFA"/>
<path d="M117.289 52.8464H83.9934V62.3353H117.289V52.8464Z" fill="#F0F0F0"/>
<path d="M89.2253 52.026H112.057V52.4876C112.057 53.2463 111.443 53.8608 110.685 53.8608H90.6002C89.8423 53.8608 89.2283 53.2463 89.2283 52.4876V52.026H89.2253Z" fill="#FAFAFA"/>
<path d="M89.2253 75.0617H112.057V75.5234C112.057 76.282 111.443 76.8966 110.685 76.8966H90.6002C89.8423 76.8966 89.2283 76.282 89.2283 75.5234V75.0617H89.2253Z" fill="#FAFAFA"/>
<path d="M6.72784 58.7215C7.45637 56.6279 13.2024 59.4742 15.5349 62.947C17.0889 65.2582 18.0377 67.7252 18.4784 71.0392C18.4255 67.2577 18.3638 63.194 18.305 59.3596C17.8321 58.4039 16.7569 56.1985 15.9814 54.4519C13.3963 48.6239 7.25073 46.4538 5.12683 42.7752C2.34489 37.9528 2.35958 30.7222 4.73025 28.114C6.78953 25.8469 13.6019 41.1815 14.3716 42.8929C17.0125 48.7856 17.7792 53.1581 18.2757 57.3953C18.2199 53.7932 18.164 50.4881 18.12 47.9358C17.976 39.6142 17.7939 36.9384 17.7116 36.115C17.4267 35.7122 17.0918 35.2447 16.895 34.9918C15.247 32.8658 11.5867 30.337 9.75653 27.2465C7.08623 22.7358 7.51806 17.3371 9.38933 15.3258C11.3487 13.2234 14.8093 18.1928 16.6482 23.1152C18.4872 28.0375 17.6999 32.7482 18.2169 36.8384C18.3256 37.6411 18.4343 40.6845 18.5401 44.91C19.0982 40.364 20.2086 37.3206 22.2679 34.4831C24.8001 30.9927 26.9857 26.7437 29.0715 27.2906C31.1572 27.8405 30.035 33.4627 28.3841 37.4118C26.9152 40.9286 19.6652 44.4337 18.5959 47.2624C18.7222 52.9875 18.8338 60.2417 18.9131 66.996C19.486 63.5086 19.0923 63.2145 21.4336 57.8717C22.8261 54.696 28.5339 50.7792 29.2154 52.9611C29.8822 55.1017 28.8629 59.2655 26.7067 62.156C24.9676 64.4848 21.1105 64.4819 20.2174 65.9286C20.0089 66.2668 19.3215 67.5576 18.9278 68.3016C19.0218 76.5467 19.063 83.8273 19.0159 86.3091L18.6429 86.3356C18.6605 85.6945 18.6164 81.5014 18.543 75.9498C17.6059 72.9946 11.3017 71.2715 9.35408 68.2016C7.31536 64.9877 5.84948 61.2356 6.7249 58.7244L6.72784 58.7215Z" fill="#E6E6E6"/>
<path d="M12.659 90.0494H24.762C25.423 90.0494 25.9929 89.5819 26.1251 88.935L26.9829 84.6948H10.4381L11.2959 88.935C11.4281 89.5848 11.998 90.0494 12.659 90.0494Z" fill="#F0F0F0"/>
<path d="M10.0915 86.3356H27.3295C27.7437 86.3356 28.0903 86.0239 28.1373 85.6152L28.4899 82.4806C28.5427 81.9984 28.1667 81.5779 27.682 81.5779H9.73896C9.25425 81.5779 8.87824 81.9984 8.93111 82.4806L9.28363 85.6152C9.33063 86.0268 9.67727 86.3356 10.0915 86.3356Z" fill="#F0F0F0"/>
<path d="M43.2808 71.0009H32.9374V90.0494H43.2808V71.0009Z" fill="#E0E0E0"/>
<path d="M69.643 90.0494H35.0084L31.3716 64.2025H66.0033L69.643 90.0494Z" fill="#E6E6E6"/>
<path d="M74.6928 90.0494H36.3861L32.7463 64.2025H71.056L74.6928 90.0494Z" fill="#F0F0F0"/>
<path d="M40.1345 86.0062L37.0706 68.2428H67.3076L70.3715 86.0062H40.1345Z" fill="white"/>
<path d="M53.1277 86.0062L42.8489 68.2428H46.0744L56.3502 86.0062H53.1277Z" fill="#FAFAFA"/>
<path d="M57.7192 86.0062L47.4404 68.2428H52.9397L63.2155 86.0062H57.7192Z" fill="#FAFAFA"/>
<path d="M13.7341 42.7458C13.6695 42.7458 13.6137 42.6958 13.6108 42.6311L12.9586 34.78C12.9527 34.7124 13.0027 34.6507 13.0732 34.6448C13.1378 34.6389 13.2024 34.6889 13.2083 34.7595L13.8605 42.6106C13.8663 42.6782 13.8164 42.7399 13.7459 42.7458C13.7429 42.7458 13.74 42.7458 13.7341 42.7458Z" fill="#407BFF"/>
<path d="M14.1219 47.4094C14.0573 47.4094 14.0015 47.3594 13.9986 47.2948L13.8017 44.9188C13.7959 44.8512 13.8458 44.7895 13.9163 44.7836C13.9809 44.7748 14.0456 44.8277 14.0514 44.8983L14.2483 47.2742C14.2541 47.3418 14.2042 47.4036 14.1337 47.4094C14.1308 47.4094 14.1278 47.4094 14.1219 47.4094Z" fill="#407BFF"/>
<path d="M80.2098 69.7513H19.5565C18.0084 69.7513 16.6365 68.4839 16.5072 66.9343L13.0908 25.8351C12.9615 24.2855 14.1219 23.0181 15.67 23.0181H76.3233C77.8714 23.0181 79.2433 24.2855 79.3726 25.8351L82.789 66.9343C82.9183 68.4839 81.7579 69.7513 80.2098 69.7513Z" fill="white"/>
<path d="M80.2098 69.8689H19.5565C17.9466 69.8689 16.5248 68.5574 16.3926 66.946L12.9762 25.8469C12.9115 25.0618 13.1583 24.3237 13.6724 23.765C14.1835 23.2093 14.8944 22.9034 15.6729 22.9034H76.3262C77.936 22.9034 79.3578 24.2149 79.49 25.8292L82.9065 66.9284C82.9711 67.7135 82.7244 68.4515 82.2103 69.0102C81.6991 69.566 80.9882 69.8718 80.2098 69.8718V69.8689ZM15.6729 23.1357C14.9591 23.1357 14.3099 23.4151 13.8428 23.9208C13.3757 24.4296 13.1495 25.1059 13.2082 25.8233L16.6247 66.9225C16.7481 68.4163 18.0642 69.6307 19.5565 69.6307H80.2098C80.9236 69.6307 81.5728 69.3513 82.0399 68.8456C82.507 68.3369 82.7332 67.6606 82.6744 66.9431L79.258 25.8439C79.1346 24.3502 77.8185 23.1357 76.3262 23.1357H15.6729Z" fill="#407BFF"/>
<path d="M76.3262 23.0181H15.6729C14.1248 23.0181 12.9644 24.2855 13.0937 25.8351H79.3755C79.2462 24.2855 77.8744 23.0181 76.3262 23.0181Z" fill="#407BFF"/>
<path d="M17.0918 24.4266C17.1182 24.7618 16.8715 25.0353 16.5366 25.0353C16.2017 25.0353 15.9079 24.7648 15.8786 24.4266C15.8492 24.0885 16.0989 23.8179 16.4338 23.8179C16.7687 23.8179 17.0624 24.0885 17.0918 24.4266Z" fill="white"/>
<path d="M19.5595 24.4266C19.5859 24.7618 19.3391 25.0353 19.0042 25.0353C18.6694 25.0353 18.3756 24.7648 18.3462 24.4266C18.3168 24.0885 18.5665 23.8179 18.9014 23.8179C19.2363 23.8179 19.5301 24.0885 19.5595 24.4266Z" fill="white"/>
<path d="M22.027 24.4266C22.0534 24.7618 21.8067 25.0353 21.4718 25.0353C21.1369 25.0353 20.8431 24.7648 20.8137 24.4266C20.7844 24.0914 21.0341 23.8179 21.369 23.8179C21.7039 23.8179 21.9976 24.0885 22.027 24.4266Z" fill="white"/>
<path d="M74.9455 64.3643H23.9248C22.6939 64.3643 21.604 63.3557 21.5012 62.1266L19.1188 33.4598C19.016 32.2277 19.9384 31.2221 21.1693 31.2221H72.19C73.4209 31.2221 74.5108 32.2307 74.6136 33.4598L76.996 62.1266C77.0988 63.3586 76.1764 64.3643 74.9455 64.3643Z" fill="#F0F0F0"/>
<path opacity="0.1" d="M59.1676 36.2385L43.3602 55.287C41.1922 57.9011 42.5641 61.8825 45.8836 62.6029L71.5203 68.1546C75.0601 68.922 78.0183 65.417 76.6729 62.0501L66.8436 37.45C65.5716 34.2655 61.359 33.6009 59.1676 36.2385Z" fill="#263238"/>
<path opacity="0.1" d="M23.9864 38.9114L18.4813 53.7521C17.7469 55.731 19.3362 57.7982 21.4366 57.5923L37.5142 56.0133C39.7674 55.7928 40.8808 53.1581 39.4678 51.385L28.8952 38.1234C27.5087 36.3856 24.759 36.8266 23.9864 38.9114Z" fill="#263238"/>
<path d="M64.6197 31.4426L49.8435 52.9199C47.8312 55.8457 49.6143 59.8653 53.1307 60.3358L80.292 63.9555C84.061 64.4584 86.8664 60.5446 85.1802 57.1307L72.7952 32.0366C71.1883 28.7815 66.6761 28.4551 64.6197 31.4455V31.4426Z" fill="#407BFF"/>
<path d="M53.777 58.4098C52.7899 58.2775 51.9292 57.6541 51.4798 56.7425C51.0303 55.831 51.0802 54.8195 51.6178 54.0373L66.4323 32.5071C66.9699 31.7249 67.8806 31.3397 68.8676 31.4691C69.8546 31.6014 70.7154 32.2248 71.1648 33.1363L83.5822 58.2951C84.0317 59.2067 83.9817 60.2182 83.4441 61.0004C82.9065 61.7825 81.9959 62.1677 81.0088 62.0383L53.777 58.4098Z" fill="white"/>
<path d="M67.6074 39.082L69.3376 39.3114C70.451 39.4584 71.3058 40.4728 71.25 41.5726L71.1355 43.8309C71.1325 43.9132 71.1208 43.9955 71.1061 44.0779L69.8752 50.8851C69.699 51.8672 68.803 52.4994 67.7866 52.3642C66.7672 52.2289 65.9476 51.3615 65.8771 50.3441L65.3777 43.3104C65.3718 43.2281 65.3718 43.1487 65.3777 43.0664L65.4952 40.8051C65.551 39.7024 66.4999 38.932 67.6132 39.0791L67.6074 39.082ZM67.4693 54.2431L67.9423 54.3049C68.9381 54.4372 69.7019 55.3429 69.652 56.3279C69.602 57.313 68.753 58.004 67.7572 57.8717L67.2842 57.8099C66.2884 57.6776 65.5246 56.7719 65.5745 55.7869C65.6245 54.8018 66.4734 54.1108 67.4693 54.2431Z" fill="#407BFF"/>
<path d="M29.6679 34.7271L25.611 50.1264C25.0734 52.1642 26.8507 54.0638 28.9188 53.6609L44.6557 50.5881C46.8677 50.1558 47.7314 47.4506 46.1803 45.8157L34.5003 33.4892C32.9609 31.8631 30.2378 32.5629 29.6649 34.7271H29.6679Z" fill="#407BFF"/>
<path d="M28.8894 52.4142C28.3166 52.5259 27.7232 52.3259 27.2972 51.876C26.8713 51.4291 26.7068 50.8263 26.8537 50.2647L30.9223 34.8242C31.0692 34.2655 31.501 33.8626 32.0709 33.7509C32.6437 33.6392 33.2371 33.8391 33.6631 34.289L45.3725 46.6479C45.7985 47.0948 45.963 47.6976 45.8161 48.2592C45.6692 48.8179 45.2374 49.2208 44.6675 49.3325L28.8894 52.4142Z" fill="white"/>
<path d="M32.8347 38.4527L33.8364 38.2557C34.4797 38.1293 35.1495 38.5586 35.3287 39.2143L35.6989 40.5581C35.7135 40.6081 35.7224 40.6581 35.7312 40.7081L36.3569 44.9306C36.4479 45.5393 36.0719 46.0803 35.4844 46.1979C34.8939 46.3126 34.2741 45.9627 34.0391 45.3805L32.4116 41.3579C32.394 41.3109 32.3764 41.2638 32.3646 41.2168L31.9945 39.87C31.8153 39.2143 32.1913 38.5821 32.8347 38.4556V38.4527ZM35.6695 47.3565L35.9427 47.3036C36.5185 47.1918 37.1177 47.5741 37.2793 48.1622C37.4409 48.7473 37.103 49.3149 36.5273 49.4266L36.2541 49.4795C35.6783 49.5913 35.079 49.209 34.9174 48.6209C34.7559 48.0358 35.0937 47.4682 35.6695 47.3565Z" fill="#407BFF"/>
<path d="M105.124 38.1881L102.844 38.9291L104.677 41.1021C104.677 41.1021 105.541 40.367 106.011 39.5407C106.208 39.1967 106.093 38.7556 105.752 38.5556L105.124 38.1881Z" fill="#7F3E3B"/>
<path d="M101.795 40.714L103.161 42.3753L104.677 41.1021L102.844 38.9291L101.795 40.714Z" fill="#7F3E3B"/>
<path d="M105.858 20.4393C106.416 21.9684 106.928 23.4974 107.409 25.047C107.888 26.5996 108.343 28.1522 108.731 29.7842L108.869 30.4105L108.934 30.7369L108.966 30.9015L108.975 30.9427L108.984 31.0045L109.001 31.128C109.084 31.7925 109.013 32.3159 108.922 32.8011C108.731 33.7626 108.42 34.5771 108.076 35.3681C107.377 36.9384 106.54 38.3498 105.562 39.7201L104.037 38.8761C104.577 37.4118 105.109 35.9033 105.509 34.4478C105.7 33.7244 105.867 32.9922 105.914 32.363C105.938 32.0542 105.92 31.766 105.879 31.6337L105.752 31.175L105.588 30.631C105.127 29.1578 104.601 27.6435 104.081 26.1409C103.564 24.6354 103.041 23.1151 102.542 21.6067L105.858 20.4422V20.4393Z" fill="#7F3E3B"/>
<path d="M93.1706 11.3444C93.2088 11.5267 93.1442 11.7002 93.0266 11.7296C92.9091 11.759 92.7799 11.6355 92.7417 11.4532C92.7035 11.2709 92.7681 11.0974 92.8856 11.068C93.0031 11.0386 93.1324 11.1621 93.1706 11.3444Z" fill="#263238"/>
<path d="M93.1617 11.6972C93.1617 11.6972 92.9737 12.8587 92.6271 13.4851C93.0119 13.7056 93.5289 13.4292 93.5289 13.4292L93.1617 11.6972Z" fill="#630F0F"/>
<path d="M92.6858 10.2329C92.6506 10.2329 92.6183 10.2152 92.5948 10.1858C92.5595 10.1358 92.5713 10.0682 92.6212 10.0329C92.6388 10.0212 93.0619 9.73006 93.6171 9.95942C93.6729 9.98294 93.6993 10.0476 93.6758 10.1035C93.6523 10.1594 93.5877 10.1858 93.5319 10.1623C93.0883 9.98 92.7505 10.2123 92.7475 10.2152C92.727 10.2299 92.7064 10.2358 92.6858 10.2358V10.2329Z" fill="#263238"/>
<path d="M99.4688 11.9266C99.6744 14.0614 99.3719 16.1286 99.8478 17.984C99.8478 17.984 99.319 19.7071 96.1669 19.7071C92.7005 19.7071 94.5776 17.984 94.5776 17.984C96.4871 17.5312 96.493 16.1256 96.2139 14.8083L99.4717 11.9266H99.4688Z" fill="#7F3E3B"/>
<path d="M100.52 18.575C100.791 18.031 100.97 17.2577 100.412 17.0636C99.7978 16.849 96.5165 16.7784 95.3268 17.1812C94.137 17.5841 94.4278 18.6897 94.4278 18.6897L100.523 18.575H100.52Z" fill="#263238"/>
<path d="M107.603 96.0156C107.832 95.9627 108.067 95.8568 108.226 95.7745C108.246 95.7627 108.261 95.7422 108.258 95.7157C108.255 95.6892 108.241 95.6716 108.217 95.6628C108.114 95.6275 107.204 95.3276 106.963 95.5305C106.925 95.5628 106.883 95.6216 106.901 95.7186C106.925 95.851 106.989 95.9451 107.095 95.998C107.23 96.0656 107.412 96.0568 107.6 96.0127L107.603 96.0156ZM108.038 95.7333C107.638 95.9157 107.312 95.9774 107.151 95.8951C107.08 95.8598 107.036 95.7951 107.021 95.701C107.013 95.654 107.027 95.6363 107.042 95.6246C107.165 95.5187 107.671 95.6246 108.038 95.7333Z" fill="#407BFF"/>
<path d="M108.214 95.7804C108.214 95.7804 108.235 95.7716 108.244 95.7628C108.258 95.7481 108.264 95.7245 108.258 95.704C108.249 95.6746 108.02 94.9777 107.68 94.8101C107.591 94.7659 107.5 94.7601 107.412 94.7924C107.277 94.8424 107.259 94.9365 107.262 94.9894C107.274 95.2776 107.897 95.701 108.185 95.7804C108.194 95.7804 108.205 95.7804 108.214 95.7804ZM107.48 94.8983C107.527 94.8865 107.577 94.8924 107.627 94.9188C107.847 95.0247 108.023 95.4217 108.1 95.6216C107.8 95.4893 107.389 95.1541 107.383 94.9835C107.383 94.9688 107.383 94.9306 107.453 94.9041C107.453 94.9041 107.471 94.8983 107.48 94.8953V94.8983Z" fill="#407BFF"/>
<path d="M91.5548 97.8093C91.7898 97.8093 92.0425 97.7594 92.2187 97.7182C92.2422 97.7123 92.2598 97.6947 92.2628 97.6682C92.2657 97.6417 92.2569 97.6211 92.2363 97.6064C92.1453 97.5476 91.3257 97.0448 91.0466 97.1889C91.0025 97.2124 90.9497 97.2595 90.9438 97.3594C90.935 97.4947 90.9761 97.6006 91.0672 97.677C91.1817 97.7741 91.3609 97.8064 91.5548 97.8064V97.8093ZM92.0425 97.6329C91.6136 97.7182 91.2816 97.7035 91.1436 97.5859C91.0819 97.5359 91.0554 97.4624 91.0613 97.3683C91.0642 97.3212 91.0819 97.3065 91.0995 97.2977C91.2464 97.2242 91.7105 97.4388 92.0425 97.6329Z" fill="#407BFF"/>
<path d="M92.2041 97.7211C92.2041 97.7211 92.2276 97.7182 92.2364 97.7123C92.254 97.7005 92.2658 97.68 92.2629 97.6564C92.2629 97.6241 92.2012 96.8949 91.9045 96.6537C91.8281 96.592 91.7429 96.5655 91.6489 96.5773C91.5049 96.5949 91.4668 96.6831 91.4579 96.7361C91.4051 97.0184 91.9103 97.5741 92.1747 97.7182C92.1835 97.7241 92.1924 97.7241 92.2041 97.7241V97.7211ZM91.693 96.692C91.7429 96.692 91.787 96.7096 91.831 96.7449C92.019 96.8978 92.1013 97.3271 92.1307 97.5388C91.8692 97.3418 91.5461 96.9213 91.5784 96.7537C91.5784 96.739 91.5872 96.7037 91.6665 96.692C91.6665 96.692 91.6842 96.692 91.693 96.692Z" fill="#407BFF"/>
<path d="M94.9302 97.63H92.6124L92.5889 92.2548H94.9067L94.9302 97.63Z" fill="#7F3E3B"/>
<path d="M111.087 95.6393L108.855 96.0509L107.254 90.761L109.486 90.3523L111.087 95.6393Z" fill="#7F3E3B"/>
<path d="M108.432 95.454L110.967 94.8541C111.058 94.8335 111.152 94.8777 111.19 94.9629L112.033 96.8831C112.121 97.083 111.995 97.3212 111.783 97.3653C110.896 97.5594 110.456 97.6094 109.339 97.874C108.655 98.0357 107.254 98.4415 106.308 98.6679C105.382 98.8885 105.05 97.974 105.423 97.7976C107.086 97.0007 107.638 96.3185 108.097 95.6804C108.179 95.5657 108.299 95.4863 108.434 95.454H108.432Z" fill="#263238"/>
<path d="M92.6389 97.3594H95.1712C95.2652 97.3594 95.3445 97.4241 95.3621 97.5182L95.7411 99.5824C95.7792 99.7971 95.6089 100 95.3915 99.9941C94.4779 99.9794 93.1618 99.9235 92.0132 99.9235C90.6707 99.9235 90.1919 99.9971 88.6173 99.9971C87.6655 99.9971 87.4393 99.0326 87.8388 98.9473C89.669 98.5503 90.468 98.5062 92.0719 97.5388C92.2453 97.4329 92.4362 97.3594 92.6389 97.3594Z" fill="#263238"/>
<path d="M105.018 18.5839C107.183 20.107 107.832 24.0355 107.832 24.0355L102.926 26.5261C102.926 26.5261 101.681 24.109 101.134 21.6537C100.617 19.3307 103.476 17.4988 105.015 18.5839H105.018Z" fill="#407BFF"/>
<path opacity="0.2" d="M102.565 21.0892L104.498 25.7234L102.929 26.5261C102.929 26.5261 102.245 25.1941 101.66 23.4886L102.565 21.0862V21.0892Z" fill="black"/>
<path d="M90.5913 28.7785C90.6089 31.3691 90.7646 34.5919 91.1494 38.5909H103.552C103.705 36.7678 102.944 28.1698 104.789 19.563C104.927 18.922 104.498 18.2986 103.852 18.1987C103.062 18.0752 101.98 17.934 100.923 17.884C99.3425 17.8076 97.0482 17.7576 95.6528 17.884C94.892 17.9517 94.1487 18.0752 93.5377 18.1928C92.4802 18.3986 91.6371 19.1896 91.358 20.2335C91.0907 21.2303 90.8175 22.7623 90.6794 25.0706C90.6148 26.135 90.5825 27.3612 90.5913 28.7756V28.7785Z" fill="#407BFF"/>
<path opacity="0.2" d="M94.5042 23.9061C93.6846 24.5089 92.1159 24.7853 90.6882 24.9088C90.7117 24.5295 90.7411 24.1708 90.7734 23.8326C91.1583 23.6297 91.5284 23.4445 91.878 23.2739L94.5042 23.9061Z" fill="black"/>
<g opacity="0.2">
<path d="M92.5889 92.2548L92.6006 95.2423H94.9213L94.9096 92.2548H92.5889Z" fill="black"/>
<path d="M109.486 90.3523L107.254 90.761L108.079 93.4868L110.315 93.0781L109.486 90.3523Z" fill="black"/>
</g>
<path d="M99.1369 9.4272C99.4777 11.712 99.7891 13.0293 98.9107 14.4672C97.5859 16.6314 94.6189 16.2962 93.6142 14.1849C92.7065 12.2824 92.304 8.86557 94.2957 7.41885C96.2551 5.99271 98.7991 7.14244 99.1399 9.4272H99.1369Z" fill="#7F3E3B"/>
<path d="M94.3955 11.0944C93.5377 10.7181 93.617 9.35956 93.8785 8.7891C92.8826 9.13314 91.4432 9.32721 91.1847 8.31568C90.9262 7.30416 91.8075 6.97482 91.2669 6.11032C90.7293 5.24582 92.442 4.29604 93.241 5.50458C94.0401 6.71312 96.0141 6.18089 97.2891 5.01352C98.2174 4.16372 99.5746 5.25758 99.034 6.36908C99.034 6.36908 101.825 6.18971 101.27 8.08339C100.714 9.97706 99.93 10.0476 100.112 11.3944C100.233 12.3059 100.341 14.1614 99.2485 14.4231C97.9265 14.7377 94.6305 13.5674 94.3955 11.0915V11.0944Z" fill="#263238"/>
<path opacity="0.2" d="M94.378 13.5703C94.1253 13.7526 93.8639 13.9467 93.5966 14.1526C93.6024 14.1643 93.6054 14.1731 93.6113 14.1849C93.8874 14.7642 94.3133 15.2111 94.8127 15.5111C94.9802 15.3493 95.0712 14.8053 95.3856 14.8142C96.3168 14.8377 98.1176 14.4495 98.4172 13.3969L94.3809 13.5703H94.378Z" fill="black"/>
<path d="M95.1005 11.0621C95.1652 11.6473 95.0565 12.1971 94.8802 12.5559C94.6129 13.094 94.1987 12.7499 94.0342 12.0883C93.8873 11.4914 93.8491 10.4946 94.231 10.2005C94.607 9.91238 95.0271 10.3917 95.1005 11.0621Z" fill="#7F3E3B"/>
<path d="M95.55 38.5909C95.55 38.5909 97.4977 56.3279 98.6845 62.9734C99.9859 70.2511 106.725 93.0899 106.725 93.0899L110.879 92.2048C110.879 92.2048 106.24 70.8363 105.614 63.6321C104.936 55.8133 103.552 38.5909 103.552 38.5909H95.55Z" fill="#407BFF"/>
<path opacity="0.3" d="M95.55 38.5909C95.55 38.5909 97.4977 56.3279 98.6845 62.9734C99.9859 70.2511 106.725 93.0899 106.725 93.0899L110.879 92.2048C110.879 92.2048 106.24 70.8363 105.614 63.6321C105.185 58.6764 104.498 50.3293 103.552 38.5909H95.55Z" fill="black"/>
<path d="M105.796 91.6872C105.779 91.6902 106.504 93.2045 106.504 93.2045L111.178 92.2077L110.843 90.7904L105.796 91.6872Z" fill="#263238"/>
<path opacity="0.2" d="M96.9689 44.91C99.9888 45.5069 99.2279 56.866 98.6375 62.7058C97.9207 58.5774 96.9425 50.6322 96.2815 44.9923C96.4871 44.8924 96.7163 44.86 96.9689 44.91Z" fill="black"/>
<path d="M91.1495 38.5909C91.1495 38.5909 90.1595 55.9427 90.139 63.0205C90.1184 70.3834 91.7576 94.4866 91.7576 94.4866H95.6852C95.6852 94.4866 96.7428 70.8128 97.1952 63.5821C97.6887 55.6987 99.3015 38.588 99.3015 38.588H91.1495V38.5909Z" fill="#407BFF"/>
<path opacity="0.3" d="M91.1495 38.5909C91.1495 38.5909 90.1595 55.9427 90.139 63.0205C90.1184 70.3834 91.7576 94.4866 91.7576 94.4866H95.6852C95.6852 94.4866 96.7428 70.8128 97.1952 63.5821C97.6887 55.6987 99.3015 38.588 99.3015 38.588H91.1495V38.5909Z" fill="black"/>
<path d="M91.0613 92.9222C91.0437 92.9222 91.2199 94.5542 91.2199 94.5542H95.9995L96.1845 93.0987L91.0613 92.9222Z" fill="#263238"/>
<path d="M96.0641 22.2242C95.5941 22.2712 95.1975 22.2947 94.7686 22.3065C94.3456 22.3212 93.9255 22.3271 93.5025 22.3241C92.6594 22.3153 91.8134 22.2712 90.9615 22.1771C90.1095 22.086 89.2547 21.9478 88.394 21.736C87.5332 21.5273 86.6637 21.2391 85.803 20.8157L85.706 20.7686C84.9452 20.3952 84.6338 19.4748 85.0069 18.7162C85.048 18.6338 85.1009 18.5486 85.1538 18.478C85.5562 17.9369 85.944 17.5606 86.3435 17.2048C86.7401 16.8519 87.1367 16.5373 87.5362 16.2373C88.3352 15.6345 89.1519 15.1023 89.9715 14.5848C90.797 14.0731 91.6283 13.5909 92.4714 13.1292C93.3204 12.6764 94.1635 12.2295 95.0448 11.8178C95.4825 11.6149 96.0024 11.806 96.2081 12.2442C96.3843 12.6235 96.2668 13.0646 95.9466 13.3086L95.9378 13.3174C95.1975 13.885 94.4396 14.4466 93.7023 15.0229C92.9591 15.5934 92.2217 16.1668 91.502 16.749C90.7793 17.3253 90.0743 17.9193 89.4075 18.5162C89.0755 18.8161 88.7553 19.119 88.4704 19.4248C88.1883 19.7248 87.921 20.0364 87.7771 20.2717L87.1249 17.9311C87.7242 18.1634 88.3969 18.331 89.099 18.4574C89.804 18.5809 90.5355 18.6603 91.2758 18.7103C92.019 18.7573 92.771 18.7809 93.526 18.7838C93.905 18.7838 94.2839 18.7838 94.6599 18.772C95.0301 18.7573 95.4296 18.7456 95.7586 18.7279H95.7997C96.7692 18.6721 97.5976 19.4131 97.6534 20.3834C97.7063 21.3273 97.0012 22.1389 96.07 22.233L96.0641 22.2242Z" fill="#7F3E3B"/>
<path d="M97.7092 11.3385L96.2346 11.6649C96.2346 11.6649 94.2693 11.4208 93.8198 12.9029L94.9831 13.8967L96.781 14.182C97.0659 14.2261 97.3567 14.182 97.6152 14.0467L98.0735 13.8085C98.285 13.6997 98.426 13.4909 98.4466 13.2528L98.5553 12.0854C98.5993 11.6149 98.1705 11.2356 97.7092 11.3385Z" fill="#7F3E3B"/>
<path d="M94.8391 23.9414C92.3686 24.6266 89.5514 23.7709 89.5514 23.7709L90.5884 18.2339C90.5884 18.2339 93.0442 18.0193 94.5747 17.9869C98.52 17.9046 99.2926 22.7064 94.8391 23.9444V23.9414Z" fill="#407BFF"/>
</g>
<defs>
<clipPath id="clip0_104_2345">
<rect width="117" height="100" fill="white" transform="translate(3)"/>
</clipPath>
</defs>
</svg>
